<?xml version="1.0" encoding="UTF-8"?>
<svg id="Layer_1" data-name="Layer 1" xmlns="http://www.w3.org/2000/svg" viewBox="0 0 333.4 302.54">
  <defs>
    <style>
      .cls-1 {
        fill: #5b2e91;
        stroke-width: 0px;
      }
    </style>
  </defs>
  <path class="cls-1" d="m262.4,130.07c-.15.37-.29.75-.44,1.12.28-.23.41-.63.44-1.12Z"/>
  <path class="cls-1" d="m255.13,84.94c-5.28,7.53-13.16,9.45-20.46,5.27,4.47-7.15,12.26-9.25,20.46-5.27Z"/>
  <path class="cls-1" d="m109.23,90.51c-8.38,3.62-15.4,1.73-20.19-5.2,6.29-4.73,15.79-2.42,20.19,5.2Z"/>
  <path class="cls-1" d="m171.83,40.94c8.67,8.54,8.6,22.5.14,31-8.45-8.09-8.61-21.79-.14-31Z"/>
  <path class="cls-1" d="m184.78,48.35c-3.93-9.99-.44-19.49,8.45-23.69,4.16,9.36.89,18.84-8.45,23.69Z"/>
  <path class="cls-1" d="m150.49,24.41c9.35,4.91,12.67,14.4,8.5,23.58-7.68-1.92-12.89-14.38-8.5-23.58Z"/>
  <path class="cls-1" d="m171.85,11.24c6.17,7.12,6.2,15.21.34,22.05-6.42-5.23-6.65-14.27-.34-22.05Z"/>
  <path class="cls-1" d="m231.52,80.32c-4.52,9.39-14.01,13.24-22.78,9.52,3.79-8.99,12.95-12.92,22.78-9.52Z"/>
  <path class="cls-1" d="m112.33,80.18c10.29-3,18.46.45,22.67,9.27-7.55,4.54-18.33.24-22.67-9.27Z"/>
  <path class="cls-1" d="m116.74,45.93c10.18-.2,17.22,5.85,18.58,15.65-8.74,1.65-17.11-5.26-18.58-15.65Z"/>
  <path class="cls-1" d="m226.9,45.77c-.42,9.81-8.76,16.94-18.34,16.04,1.23-9.77,7.76-15.59,18.34-16.04Z"/>
  <path class="cls-1" d="m130.03,224.82c-.76-26.82,27.17-48.66,53.32-40.26-7.2-13.95-10.78-21.13-19.99-32.44-8.63,28.89-46.07,42.12-69.07,17.61-15.92-16.66-19.82-46.01,0-59.32-.68.49.26-.22,0,0,.46-.33,1-.69,1.43-1.08-73.37,6.9-111.63,99.68-63.96,156.5,33.51,43.85,102.56,48.86,141.85,10.28-1.03-2.74-2.67-5.27-3.49-8.05-21.51-2.82-40.26-19.93-40.09-43.22Zm-86.92-83.54c9.72-9.8,20.94-17.29,35.03-21.83-11.39,31.25,9.96,65.2,42.23,69.77-31.39,7.03-74.33-14.88-77.26-47.94Zm-6.82,6.62l12.21,21.15c-8.93-1.44-14.48-1.82-24.01-1.68,4.01-6.62,7.68-12.68,11.79-19.47Zm-16.08,32.48c.67-2.76.41-6.34,5.07-6.77,13.37-1.22,26.07.93,37.27,8.3,15.42,11.14,32.42,14.13,50.63,15.63-32.96,11.01-63.38,7.6-91.66-11.88-1.16-.8-1.7-3.67-1.31-5.28Zm-3.32,10.24c8.17,4.44,15.16,8.24,20.95,11.39-6.6,5.54-13.43,11.29-20.98,17.63,0-9.26.02-18.74.03-29.02Zm58.12,100.57c-8.76-5-16.97-9.68-25.23-14.4,9.25-3.35,17.7-6.42,25.82-9.36-.17,6.68-.36,14.53-.59,23.76Zm-30.44-23.02c-9.02-2.16-15.42-19.75-20.92-27.28-6.22-11.08-.49-18.39,5.75-24.94,6.94-7.29,16.04-10.29,25.99-8.49,16.89,3.84,33.68,1.69,50.16-.53-11.19,11.79-19.87,25.27-25.08,40.7-5.38,15.41-20.46,24.06-35.9,20.55Zm40.44,25.22c-1.4-.34-3.33-2.31-3.43-3.66-2.69-34.07,9.42-62.07,35.77-84.07-8.89,14.53-13.21,30.33-12.02,47.4.92,14.5-3.12,27.59-11.42,39.49-2.8,4.01-6,1.53-8.9.84Zm14.34,3.03c3.65-7.61,6.91-14.41,10.34-21.55l12.04,20.86c-7.82.24-14.94.46-22.38.69Zm67.62-22.35c-8.42,7.72-17.83,13.22-28.21,16.74-11.53,3.91-9.25,4.93-16.21-5.22-17.12-24.97-14.73-62.47,5.86-83.91-11.89,31.5,4.24,64.41,38.56,72.39Z"/>
  <path class="cls-1" d="m137.78,247.99c-6.87-11.77-8.84-23.54-6.39-33.82-5.32,19.18,5.02,40.63,22.27,48.53-6.82-3.62-12.24-8.64-15.88-14.71Z"/>
  <path class="cls-1" d="m56.59,138.66c9.16.81,14.76,6.67,14.8,15.08-8.42-.3-14.14-5.99-14.8-15.08Z"/>
  <path class="cls-1" d="m134.37,262.22c-4.39,7.62-1.65,17,5.6,20.08,3.6-7.61,1.73-14.64-5.6-20.08Z"/>
  <path class="cls-1" d="m60.13,232.8c3.06-11.77,15.19-18.7,26.77-15.62-2.78,11.37-14.56,18.35-26.77,15.62Z"/>
  <path class="cls-1" d="m60.09,217.88c-6.69,8.4-16.66,10.13-24.74,4.53,6.02-8.28,15.87-10.19,24.74-4.53Z"/>
  <path class="cls-1" d="m56.49,259.54c-.42-10.55,6.14-18.18,16.17-19.15,2.17,7.61-6,18.35-16.17,19.15Z"/>
  <path class="cls-1" d="m34.41,247.63c3.08-8.9,10.07-12.97,18.93-11.33-1.32,8.18-9.03,12.89-18.93,11.33Z"/>
  <path class="cls-1" d="m64.4,161.41c10.39-.78,18.47,5.51,19.63,14.97-9.68,1.21-17.67-4.75-19.63-14.97Z"/>
  <path class="cls-1" d="m123.87,264.71c-7.74-7.42-8.84-16.22-3.3-24.26,7.71,4.27,9.37,15.75,3.3,24.26Z"/>
  <path class="cls-1" d="m92.01,278.02c-5.27-8.71-3.54-17.84,4.27-23.92,5.8,6.75,4,17.45-4.27,23.92Z"/>
  <path class="cls-1" d="m36.79,182.69c8.7-4.54,19.06-.88,23.06,7.87-9.08,3.82-17.38,1.08-23.06-7.87Z"/>
  <path class="cls-1" d="m171.64,225.05c8.47-9.21,8.31-22.9-.14-31-8.46,8.5-8.52,22.46.14,31Z"/>
  <path class="cls-1" d="m150.25,241.32c8.89-4.2,12.38-13.69,8.45-23.69-9.34,4.85-12.61,14.33-8.45,23.69Z"/>
  <path class="cls-1" d="m184.48,217.99c-4.17,9.18-.85,18.67,8.5,23.58,4.39-9.21-.82-21.66-8.5-23.58Z"/>
  <path class="cls-1" d="m171.28,232.69c-5.85,6.84-5.83,14.94.34,22.05,6.3-7.78,6.07-16.82-.34-22.05Z"/>
  <path class="cls-1" d="m198.07,154.55c11.59,3.08,23.71-3.85,26.77-15.62-12.21-2.73-23.99,4.25-26.77,15.62Z"/>
  <path class="cls-1" d="m224.89,153.85c8.87,5.67,18.72,3.75,24.74-4.53-8.08-5.6-18.05-3.87-24.74,4.53Z"/>
  <path class="cls-1" d="m212.31,131.34c10.03-.98,16.59-8.6,16.17-19.15-10.17.8-18.35,11.54-16.17,19.15Z"/>
  <path class="cls-1" d="m231.64,135.42c8.85,1.65,15.85-2.42,18.93-11.33-9.89-1.57-17.6,3.15-18.93,11.33Z"/>
  <path class="cls-1" d="m118.36,137.04c11.73-3.24,23.79,3.8,26.92,15.38-11.24,3.27-23.17-3.44-26.92-15.38Z"/>
  <path class="cls-1" d="m131.25,129.54c-10.62-1.6-17.1-9.36-16.29-19.16,10.18,1.08,16.76,8.65,16.29,19.16Z"/>
  <path class="cls-1" d="m93.37,147.26c8.93-5.64,18.81-3.77,24.67,4.43-5.5,5.69-18.9,3.98-24.67-4.43Z"/>
  <path class="cls-1" d="m92.65,122.18c9.25-1.79,16.27,2.24,19.27,10.73-7.74,2.94-15.68-1.38-19.27-10.73Z"/>
  <g>
    <path class="cls-1" d="m267.68,80.78C241.83-56.6,37.25-4.03,80.82,128.31c.15-1.89.67-4.09,2.24-5.3,2.15-5.41,6.85-9.03,11.23-12.61-.68.49.26-.22,0,0,42.27-33.02,95.29,21.84,58.09,59.89-1.8,3.62-2.87,6.26-1.98,6.25,3.86-.06,48.12,7.38,51.98,7.14-6.46-14.69-23.83-21.73-22.93-43.23.45-49.08,70.51-53.76,82.94-10.38,5.98-15.37,8.09-32.33,5.29-49.29Zm-10.41-18.04h-24.42c5.71-7.01,8.81-11.63,13.46-19.95,3.73,6.79,7.14,12.99,10.96,19.95Zm-27.3-38.16c-7.93,4.85-14.71,9.01-20.34,12.45-1.5-8.49-3.06-17.27-4.78-26.98,8.02,4.64,16.22,9.39,25.12,14.53Zm-91.07-14.6c-1.72,9.68-3.29,18.53-4.8,27.04-5.7-3.48-12.4-7.58-20.28-12.4,8.71-5.09,16.87-9.85,25.09-14.65Zm-41.78,33.11c4.76,6.96,9.02,13.19,13.49,19.73h-24.09c3.7-6.89,7.07-13.17,10.59-19.73Zm-14.45,69.73c-2.47-11.15-2.53-22.05-.39-32.8,2.37-11.94.36-10.48,12.62-11.43,30.18-2.35,61.47,18.48,69.74,47.03-21.33-26.04-57.9-28.53-81.97-2.8Zm82.87-10.75c-7.96-14.22-19.24-24.89-33.86-32.13-13.02-6.45-22.33-16.49-28.49-29.63-2.08-4.43,1.67-5.97,3.72-8.13.99-1.05,3.66-1.73,4.89-1.14,30.85,14.71,49.05,39.19,54.92,73.01-.4-.66-.81-1.31-1.19-1.98Zm5.99-8.87c-4.62-15.59-11.95-29.84-22.71-42.07-11.88-13.03-10.77-37.54,5.91-44.82,9.42-.66,18.89-1.13,28.33-1.02,21.52.32,25,31.82,13.09,44.2-11.77,12.71-18.31,28.32-24.62,43.7Zm6.01,10.13c-.18.35-.72.52-1.7,1.18,6.94-34.05,25.11-58.69,56.12-73.44,1.27-.6,4.03.36,5.23,1.51,2.05,1.96,5.29,3.53,3.33,7.77-5.63,12.19-13.84,22.11-25.82,28.12-15.94,8-28.79,18.94-37.15,34.86Zm83.45,9.88c-21.37-25.49-61.45-23.97-81.54,1.69,9.61-30.7,50.05-56.93,80.15-42.94,3.63,13.31,4.51,26.78,1.39,41.25Z"/>
    <path class="cls-1" d="m194.84,108.9c11.97-9.26,30.71-10.46,43.78-4.78-13.53-6.94-32.33-4.78-43.78,4.78Z"/>
    <g>
      <path class="cls-1" d="m289.75,124.22c-8.16-5.34-16.83-9.35-25.75-12.04-1.85,2.26-3.22,4.95-5.23,7.05,17.76,41.99-30.37,81.58-65.67,51.33-1.04,2.01-2.08,4-3.17,5.95-1.78,3.2-22.1-7.19-7.93,7.66,53.98,15,31.65,94.06-21.35,81.64,97.94,110.13,247.54-54.17,129.09-141.58Zm33.54,56.04c.41,1.38-.33,4.03-1.45,4.8-28.16,19.36-58.47,22.88-90.69,11.06,17.03.43,32.87-3.73,47.06-13.29,12.1-8.05,25.45-11.09,39.91-9.86,4.87.42,4.33,4.43,5.18,7.29Zm-16.33-32.98c4.12,6.65,7.87,12.71,11.79,19.04-8.41.64-15.94,1.22-23.83,1.82l12.04-20.86Zm-41.38-28.34c10.89,3.43,20.36,8.83,28.6,16.06,9.15,8.03,8.9,5.55,3.59,16.65-13.06,27.31-46.74,43.99-75.6,36.88,33.22-5.45,53.66-35.88,43.41-69.59Zm-53.08,173.66c-13.34-3.52-25.44-9.49-36.42-19.42,32.76-5.76,51.48-41.23,39.31-71.46,21.78,23.67,24.28,71.81-2.89,90.88Zm9.14,2.59l12.21-21.15c3.22,8.45,5.66,13.44,10.55,21.63-7.74-.16-14.82-.31-22.76-.48Zm40.09-6.09c-1.01,3.67-9.44,7.46-12.31,2.77-7.74-10.97-12.23-23.05-11.45-36.43,1.94-18.93-3.98-35.14-11.78-51.66,26.02,23.04,38.27,51.09,35.54,85.32Zm6.61,1.53c-.24-9.3-.44-17.25-.61-23.83,8.1,2.94,16.49,5.99,25.76,9.35-8.03,4.62-16.24,9.35-25.15,14.48Zm53.44-56.03c-4.14,8.49-8.47,16.92-13.28,25.05-11.03,18.48-40.06,5.75-44.82-10.77-5.12-16.55-15.38-30.02-25.54-43.17,15.81,3.8,31.82,4.57,47.79,1.37,17.22-3.77,37.89,9.44,35.86,27.53Zm-16.27-33.22c5.86-3.19,12.76-6.95,20.88-11.37.05,10.09.1,19.54.14,29.05-7.53-6.33-14.4-12.12-21.02-17.68Z"/>
      <path class="cls-1" d="m237.83,177.16c10.34-4.73,18.35-13.57,21.86-24.39-4.34,10.68-13.26,20.08-21.86,24.39Z"/>
      <path class="cls-1" d="m203.49,282.24c7.54-5.11,9.62-12.91,5.66-20.36-7.27,4.23-9.54,12.02-5.66,20.36Z"/>
      <path class="cls-1" d="m271.62,153.1c1.05-9.07,6.2-14.2,14.59-14.89.95,7.82-5.8,14.88-14.59,14.89Z"/>
      <path class="cls-1" d="m283.25,232.1c-11.73,3.24-23.79-3.8-26.92-15.38,11.24-3.27,23.17,3.44,26.92,15.38Z"/>
      <path class="cls-1" d="m270.35,239.6c10.62,1.6,17.1,9.36,16.29,19.16-10.18-1.08-16.76-8.65-16.29-19.16Z"/>
      <path class="cls-1" d="m308.23,221.88c-8.93,5.64-18.81,3.77-24.67-4.43,5.5-5.69,18.9-3.98,24.67,4.43Z"/>
      <path class="cls-1" d="m308.95,246.96c-9.25,1.79-16.27-2.24-19.27-10.73,7.74-2.94,15.68,1.38,19.27,10.73Z"/>
      <path class="cls-1" d="m219.29,264.1c-5.87-8.61-4.46-18.75,3.15-24.49,5.89,7.78,4.72,17.68-3.15,24.49Z"/>
      <path class="cls-1" d="m259.66,175.94c9.74.77,16.81-4.58,19.36-14.99-10.41-1-19.52,6.18-19.36,14.99Z"/>
      <path class="cls-1" d="m306.47,181.89c-4.91,8.92-13.68,11.99-22.84,8.26,2.95-8.39,13.11-12.19,22.84-8.26Z"/>
      <path class="cls-1" d="m251.53,277.37c-8.28-5.27-10.29-16.06-4.72-23.9,7.84,5.95,9.62,14.51,4.72,23.9Z"/>
    </g>
  </g>
</svg>