<?xml version="1.0" encoding="UTF-8"?>
<svg id="Layer_1" data-name="Layer 1" xmlns="http://www.w3.org/2000/svg" viewBox="0 0 323.34 245.7">
  <defs>
    <style>
      .cls-1 {
        fill: #5b2e91;
        stroke-width: 0px;
      }
    </style>
  </defs>
  <path class="cls-1" d="m46.22,187.64c-6.42-22.44-12.81-44.76-19.2-67.09-2.97-10.38-6-20.74-8.86-31.15-.66-2.4-1.48-3.55-4.33-3.56-7.34-.04-12.22-3.9-13.55-10.06-1.25-5.78,1.83-11.92,7.26-14.5,5.41-2.56,12.09-.99,15.75,3.7,3.82,4.9,3.55,11.43-.69,17.01-.39.51-.75,1.04-1.53,2.12,15.68,17.85,31.29,35.52,56.35,40.18,10.74,2,20.45-.96,29.4-6.69,12.25-7.84,20.7-19.17,27.85-31.5,10.49-18.07,17.78-37.49,23.38-57.58.21-.77.36-1.56.51-2.22-9.05-6.1-11.4-10.64-9.25-17.47C151.09,3.21,156.05-.17,162.29,0c5.62.15,10.7,4.17,12.02,9.49,1.66,6.68-1.11,11.67-9.9,16.85,2.95,8.86,5.73,18.02,9.05,26.97,6.62,17.85,14.72,34.97,27.03,49.72,8.93,10.7,19.36,19.14,33.77,21.37,10,1.54,19.17-.99,27.91-5.38,15.49-7.78,27.29-19.95,38.4-32.91,2.41-2.81-.02-4.08-1.16-5.87-3.87-6.07-2.17-14.25,3.76-18.07,5.92-3.81,13.75-2.33,17.72,3.35,4.16,5.96,2.95,14.06-3.12,18.04-2.09,1.37-4.94,2.25-7.42,2.2-3.43-.08-4.48,1.24-5.34,4.31-8.76,31.01-17.69,61.97-26.58,92.94-.44,1.53-.95,3.04-1.52,4.82-14.83-15.99-34.39-21.19-54.13-24.98-43.28-8.31-86.64-8.11-129.75,1.67-12.85,2.91-25.36,6.95-36.39,14.45-3.54,2.4-6.62,5.48-10.41,8.68Z"/>
  <path class="cls-1" d="m58.37,213.68c-11.32-7.95-11.98-17.94-1.7-26.43,10.8-8.93,23.93-12.92,37.21-16.07,30.02-7.12,60.48-8.56,91.2-6.49,19.64,1.32,39.1,3.82,57.68,10.47,8.19,2.93,16.3,6.9,23.37,11.91,11.07,7.84,10.35,18.36-1.06,26.63-1.56-9.05-8.05-13.82-15.37-17.65-15.09-7.89-31.51-11.27-48.2-13.56-20-2.75-40.1-3.46-60.24-1.98-21.11,1.55-41.98,4.41-61.69,12.75-2.75,1.16-5.46,2.47-8.03,3.98-6.42,3.78-11.96,8.36-13.17,16.45Z"/>
  <path class="cls-1" d="m248.09,204.48c8.81,5.74,10.19,14.41,2.22,20.5-6.33,4.84-13.84,8.54-21.36,11.34-15.36,5.73-31.61,7.86-47.87,8.74-29.33,1.59-58.59.71-86.77-8.78-7.56-2.55-15.01-6.51-21.33-11.38-7.95-6.12-6.48-14.87,2.31-20.37,1.48,7.03,6.55,10.97,12.37,14.11,11.11,6.01,23.23,8.95,35.58,10.8,31.38,4.71,62.65,4.42,93.5-3.65,6.84-1.79,13.44-4.75,19.86-7.79,5.66-2.68,10.07-6.94,11.47-13.53Z"/>
  <path class="cls-1" d="m67.3,114.05c4.94-14.01,9.7-27.59,14.52-41.16,1.16-3.26,1.4-5.5-2.75-7.28-5.3-2.27-7.57-8.32-6.32-13.8,1.38-6.04,5.72-9.85,11.81-10.37,5.7-.48,11.06,3.09,13.1,8.74,1.95,5.38.55,11.63-4.52,14.49-4.25,2.4-3.87,4.97-2.61,8.54,4.46,12.62,8.84,25.27,13.29,38.02-9.93,7.87-25.47,9.1-36.51,2.82Z"/>
  <path class="cls-1" d="m256.52,113.65c-10.49,6.69-26.44,5.56-37.23-2.54,3.26-8.77,6.56-17.56,9.78-26.39,1.25-3.42,2.16-6.97,3.46-10.37,1.62-4.23,1.94-7.33-2.94-10.22-4.92-2.91-5.87-9.39-3.61-14.74,2.21-5.24,7.66-8.5,13.17-7.88,6.13.68,10.21,4.44,11.54,10.65,1.12,5.21-1.18,11.26-6.25,13.37-4.42,1.85-4.05,4.27-2.79,7.68,4.54,12.27,9.03,24.57,13.54,36.85.45,1.22.9,2.43,1.33,3.58Z"/>
</svg>