<?xml version="1.0" encoding="UTF-8"?>
<svg id="Layer_1" data-name="Layer 1" xmlns="http://www.w3.org/2000/svg" viewBox="0 0 85.54 121.31">
  <defs>
    <style>
      .cls-1 {
        fill: #ad94c6;
      }

      .cls-1, .cls-2, .cls-3, .cls-4, .cls-5 {
        stroke-width: 0px;
      }

      .cls-2 {
        fill: #110e0c;
      }

      .cls-3 {
        fill: #5b2e91;
      }

      .cls-4 {
        fill: #c6a181;
      }

      .cls-5 {
        fill: #2d184b;
      }
    </style>
  </defs>
  <path class="cls-2" d="m63.09,79.72c-5.55,5.76-12.34,9.93-18.71,14.64-1.41,1.05-2.71,2.23-3.81,3.62-2.23,2.78-2.51,5.82-1.1,9,1.75,3.94,4.16,7.47,6.96,10.73.33.38.67.76,1.01,1.14.57.65.68,1.32.04,1.97-.61.63-1.53.66-2.16-.01-.99-1.06-1.94-2.16-2.84-3.3-4.84-6.09-8-13.04-10.44-20.36-2.49-7.46-4.31-15.11-6.7-22.6-.55-1.72-.99-3.48-1.81-5.11-.02-.13,0-.28-.05-.4-3.24-8.99-7.65-17.33-13.85-24.66-1.44-1.7-2.94-3.35-4.53-4.92-.36-.36-.59-.75-.34-1.26.18-.37.49-.53.9-.53.51,0,.78.37,1.08.67,6.33,6.37,11.56,13.54,15.63,21.56,1.71,3.37,3.1,6.87,4.58,10.33,1.08,3.31,2.21,6.61,3.24,9.94,1.33,4.29,2.58,8.61,3.87,12.92.07.25.17.49.42.7-.04-.72-.08-1.45-.12-2.17-.23-5.07-.08-10.12.41-15.17,1.08-11.22,4.39-21.91,7.89-32.54.3-.93.39-1.72-.05-2.6-.33-.66-.51-1.39-.82-2.05-.32-.68-.25-1.23.38-1.68,1.44-.2,2.88-.08,4.31.12.33.12.65.24.98.36.63.31,1.24.65,1.77,1.12.57.5.81,1.05.31,1.74-.93.47-1.82,1.05-2.79,1.4-1.42.52-2.1,1.47-2.55,2.9-2.3,7.24-4.43,14.51-5.79,21.99-1.37,7.55-1.97,15.17-1.76,22.85.08,3.06.24,6.11.52,9.17.37-.09.36-.42.46-.63.94-2.03,2.24-3.84,4.15-4.98,4.33-2.57,5.98-6.64,6.67-11.31.27-1.8.51-3.6.59-5.42.07-1.75.24-3.5.26-5.26.05-4.57-.29-9.1-.92-13.62-.1-.74.14-1.27.84-1.35.66-.08,1,.38,1.09,1.06.39,2.88.65,5.76.83,8.66.18,3.01.12,6.01,0,9.01-.33,4.18-.84,8.33-1.82,12.66,2.44-1.65,4.62-3.2,6.71-4.88,1.49-1.2,3-2.4,4.29-3.82,5.85-5.5,9.72-12.18,11.89-19.87.72-2.56,1.21-5.18,1.58-7.81.1-.69.43-1.07,1.14-.97.69.1.82.62.75,1.21-.06.54-.14,1.07-.22,1.6-1.01,6.74-3.16,13.07-6.76,18.88-1.49,2.42-3.32,4.58-5.08,6.79,0,0-.03.03-.03.03-.16.04-.27.13-.28.31,0,0,0,0,0,0-.13,0-.2.07-.21.19Z"/>
  <path class="cls-3" d="m49.53,40.93c.5-.69.26-1.23-.31-1.74-.53-.47-1.13-.81-1.77-1.12.57-.52,1.15-1.02,1.7-1.56,3.64-3.56,7.27-7.13,10.91-10.69.12-.12.24-.24.37-.35,2.9-2.48,5.44-5.32,8.23-7.91,1.67-1.55,1.46-2.86-.13-4.53-2.03-2.14-4.6-3.22-7.39-3.9-.32-.08-.58-.13-.72-.45,1.41-2.1,3.51-2.7,6.63-1.9,1.54.4,3.01,1,4.39,1.78,4.97,2.8,9.22,6.45,12.84,10.86.3.36.55.77.75,1.19,1.08,2.27.47,3.94-1.84,4.9-1.08.45-2.25.72-3.34,1.14-4.45,1.7-8.2,4.49-11.67,7.69-3.73,3.44-8,5.81-13.09,6.53-1.84.26-3.7.36-5.55.07Z"/>
  <path class="cls-3" d="m26.95,70.25c-1.48-3.47-2.87-6.97-4.58-10.33-4.07-8.02-9.3-15.19-15.63-21.56-.31-.31-.58-.67-1.08-.67-.41,0-.72.15-.9.53-.25.52-.02.91.34,1.26,1.59,1.57,3.09,3.22,4.53,4.92,6.2,7.33,10.61,15.67,13.85,24.66.04.12.04.27.05.4-6.5-3.29-11.77-7.98-15.88-13.98C2.33,47.71-.16,39.09,0,29.69c.02-.89.17-1.11,1.05-.7,13.89,6.49,22.36,17.23,25.32,32.28.58,2.96.76,5.96.57,8.97Z"/>
  <path class="cls-3" d="m63.61,79.2c1.76-2.22,3.59-4.37,5.08-6.79,3.6-5.82,5.75-12.15,6.76-18.88.08-.53.15-1.07.22-1.6.07-.6-.06-1.11-.75-1.21-.71-.1-1.04.28-1.14.97-.38,2.63-.86,5.25-1.58,7.81-2.17,7.7-6.04,14.38-11.89,19.87-1.98-15.23,6.49-29.22,17.9-35.28.16,1.19.38,2.34.45,3.49.64,11.07-2.92,20.55-10.78,28.39-1.1,1.1-2.3,2.08-3.56,2.99-.2.14-.37.43-.7.24Z"/>
  <path class="cls-5" d="m60.42,8.69c.13.32.4.38.72.45,2.79.68,5.35,1.76,7.39,3.9,1.59,1.67,1.8,2.97.13,4.53-2.79,2.59-5.33,5.44-8.23,7.91-.13.11-.25.23-.37.35-3.64,3.56-7.27,7.13-10.91,10.69-.55.54-1.13,1.04-1.7,1.56-.33-.12-.65-.24-.98-.36-.25-.32-.24-.69-.23-1.06.04-2.4.75-4.64,1.62-6.84,2.19-5.51,5.23-10.57,8.5-15.49,1.21-1.82,2.45-3.61,3.68-5.42.13-.07.25-.15.38-.22Z"/>
  <path class="cls-1" d="m60.04,8.91c-1.23,1.8-2.48,3.6-3.68,5.42-3.27,4.93-6.3,9.98-8.5,15.49-.87,2.19-1.59,4.44-1.62,6.84,0,.37-.01.75.23,1.06-1.43-.19-2.87-.32-4.31-.12-1.4-1.15-2.37-2.64-3.23-4.21-.01-.1-.02-.21-.04-.31.49-.27.82-.68,1.11-1.14,1.12-1.75,1.73-3.72,2.36-5.67,1.74-5.38,3.29-10.82,6.58-15.55.56-.8,1.02-1.75.92-2.83l2.19-.03c2.69.12,5.37.29,7.97,1.05Z"/>
  <path class="cls-3" d="m51.13,75.4c.11-3,.18-6,0-9.01-.17-2.9-.44-5.78-.83-8.66-.09-.68-.44-1.14-1.09-1.06-.71.08-.95.61-.84,1.35.63,4.52.97,9.06.92,13.62-.02,1.76-.18,3.51-.26,5.26-3.19-4.61-4.48-9.74-4.13-15.29.27-4.29,1.64-8.23,4.03-11.82.32.03.41.31.55.52,5.19,7.87,5.81,16.1,1.92,24.68-.07.15-.18.28-.27.41Z"/>
  <path class="cls-3" d="m52.07,7.86c-.73.01-1.46.02-2.19.03-1.5-.34-3.02-.18-4.52-.07-2.68.2-5.31.14-7.87-.83-1.32-.5-2.66-.97-4.01-1.39-1.26-.4-2.56-.55-3.86-.13-.07-.02-.14-.04-.22-.06-.09-.76-.51-1.38-.9-2.01C27.29,1.45,28.03.07,30.37,0c1.95-.06,3.78.58,5.63,1.09,2.69.75,5.27,1.89,8.02,2.42.92.18,1.88.19,2.8.36,2.08.38,2.92,1.26,3.25,3.36.07.42.27.46.6.48.46.04.95-.1,1.39.14Z"/>
  <path class="cls-1" d="m29.41,5.42c.07.02.14.04.21.06.64,2.69,1.09,5.41,1.23,8.18-.02.05-.02.09-.02.14-.65-.65-1.45-1.08-2.21-1.56-.4-.25-.82-.47-1.18-.76-1.92-1.53-1.85-3.8.16-5.24.55-.39,1.15-.68,1.82-.82Z"/>
  <path class="cls-4" d="m63.3,79.53c0-.18.12-.27.28-.31.11.28-.09.29-.28.31Z"/>
  <path class="cls-4" d="m63.09,79.72c.01-.13.08-.2.21-.19,0,.14-.09.19-.21.19Z"/>
  <path class="cls-5" d="m30.85,13.65c-.14-2.77-.59-5.49-1.23-8.18,1.3-.42,2.59-.27,3.86.13,1.35.43,2.68.89,4.01,1.39,2.56.97,5.19,1.02,7.87.83,1.5-.11,3.02-.27,4.52.07.11,1.08-.36,2.03-.92,2.83-3.29,4.73-4.85,10.17-6.58,15.55-.63,1.95-1.24,3.91-2.36,5.67-.29.46-.63.87-1.11,1.14-1.13-1.96-1.5-4.16-1.99-6.33-.38-1.68-.72-3.36-1.13-5.03-.79-3.21-2.47-5.88-4.93-8.08Z"/>
</svg>