<?xml version="1.0" encoding="UTF-8"?>
<svg id="Layer_1" data-name="Layer 1" xmlns="http://www.w3.org/2000/svg" viewBox="0 0 372.89 349.23">
  <defs>
    <style>
      .cls-1 {
        fill: #5b2e91;
      }

      .cls-1, .cls-2 {
        stroke-width: 0px;
      }

      .cls-2 {
        fill: #fff;
      }
    </style>
  </defs>
  <path class="cls-1" d="m355.64,228.5c13.56-26.03,19.09-53.53,16.72-82.47-1.52-18.54-6.21-36.29-14.49-53.14-15.63-31.79-39.87-56.37-72.59-73.21C250.32,1.7,212.85-3.92,173.56,2.66c-31.14,5.21-58.65,17.76-82.23,37.6-1.67,1.4-2.56,1.33-4.08-.14-5.57-5.37-11.27-10.63-16.97-15.88-3.8-3.51-7.81-3.48-11.46.26-5.32,5.45-10.71,10.86-15.62,16.62C26.75,60.45,14.95,82.1,7.76,105.83-.44,132.91-2.08,160.43,2.54,188.29c3.58,21.58,10.77,42.02,22.04,61.11,21.8,36.92,53.12,64.47,93.99,82.34,18.29,8,37.52,13.2,57.59,15.52,6.35.73,12.71,1.3,19.33,1.97l15.93-.02c1.21-.15,1.71-.24,2.22-.27,23.81-1.29,46.8-5.9,68.84-14.55,24.36-9.56,45.9-23.04,64.59-40.49,3.92-3.67,3.87-7.12,0-10.72-6.19-5.76-12.41-11.48-18.82-17.4.76-.84,1.16-1.29,1.57-1.72,10.27-10.79,19.05-22.58,25.81-35.56ZM161.03,33.12c3.02-2.4,5.36-5.54,8.2-8.17,1.94-1.8,3.02-3.75,2.73-6.29-.2-1.7.56-2.39,2.4-2.7,32.38-5.49,63.62-2.13,93.73,10.34,2.1.87,3.26,1.98,3.4,4.32.19,3.33,1.05,6.62,1.35,9.95.32,3.44,2.52,5.11,5.42,6.96,9.42,6.05,17.8,13.07,21.12,24.79-2.57-.24-4.68-.34-6.76-.66-9.95-1.52-19.93-2.86-29.8-4.74-6.15-1.17-12.12-3.19-18.16-4.85-5.12-1.41-9.67,1.48-9.41,6.43.37,6.75,1.25,13.48,1.91,20.22.37,3.81.37,7.69,1.24,11.4.57,2.45,2.33,4.68,3.67,6.95.39.66,1.21,1.09,1.76,1.68,4.62,4.88,10.34,7.05,17.35,6.7,3.34-.17,6.72.34,10.07.65,6.27.58,10.16,5.27,15.28,7.81,6.57,3.25,8.85,9.49,12.92,14.49,3.14,3.85,3.13,5.89-.39,9.59-1.8,1.9-3.88,3.6-6,5.2-1.94,1.46-3.95,1.22-5.42-.73-3.87-5.13-7.47-10.45-11.58-15.4-1.72-2.07-4.23-4.07-6.81-4.87-4.02-1.25-8.39-1.7-12.65-2.02-4.98-.38-8.46,1.94-11.03,5.99-2.82,4.47-6.01,8.76-9.26,12.97-2.4,3.1-5.62,4.89-10.01,4.51-1.61-.14-3.29.49-4.94.74-3.69.56-5.22-.93-4.02-4.23,4.24-11.68,1.56-22.07-6.44-31.52-2.08-2.46-4.38-4.62-8.17-4.04-3.76.58-5.32,3.08-6.33,6.19-1.34,4.13-2.83,8.22-4.31,12.31-.3.82-.68,1.73-1.31,2.33-5.53,5.23-11.13,10.41-16.92,15.79-1.65-2.71-3.04-4.6-3.94-6.67-.44-1.01-.4-2.6.17-3.53,2.19-3.58,4.5-7.12,7.1-10.44,3.29-4.19,5.5-8.55,4.89-13.92-.24-2.14-.03-4.33-.06-6.5-.08-5.45-4.79-8.43-10.16-6.27-2.79,1.12-5.29,2.86-8.07,3.98-1.62.65-3.72,1.21-5.29.79-3.39-.9-6.96-1.95-9.77-3.84-12.16-8.15-32.1-2.88-37.75,7.5-1.12-.66-2.32-1.2-3.31-1.97-4.2-3.28-8.42-6.54-12.43-10.02-.97-.85-1.73-2.55-1.61-3.77.91-9.34,4.13-14.56,14.12-16.67,9.93-2.1,19.93-3.22,30.05-2.87,6.48.23,10.25-2.81,12.89-7.71,2.89-5.35,4.36-11.04,4.23-17.07-.03-1.38.09-2.77-.06-4.14-.63-5.98,1.11-10.94,6.18-14.97Zm-7.94-11.46c-.91.99-1.45,1.8-2.2,2.36-8.46,6.35-10.6,14.87-10.21,24.54.16,4.14-.95,8.33-1.57,12.48-.27,1.83-1.45,2.51-3.49,2.57-10.95.29-21.78,1.22-32.5,3.67-15.3,3.5-21.53,13.56-23.55,26.3-1.2,7.58.74,13.42,7.55,17.94,6.65,4.41,12.64,9.79,19.61,13.64,6.94,3.83,12.38,1.57,16.12-5.16,3.01-5.42,11.76-7.9,17.06-4.55,7.74,4.9,16.13,7.38,25.74,6.91-2.22,3.18-4.43,6.14-6.4,9.24-3,4.74-5.69,9.87-3.63,15.37,2.17,5.78,5.02,11.42,8.3,16.73,2.57,4.14,8.47,4.69,13.08,1.41,5.6-3.98,10.96-8.3,16.08-12.82,4.17-3.67,7.83-7.85,12.19-12.28-.61,2.28-1.02,4.19-1.63,6.06-2.11,6.47-1.89,12.59,3.84,17.4,4.48,3.76,10.06,4.78,15.94,3.99,4.43-.6,9.11-.76,13.19-2.26,8.21-3.01,13.01-9.69,17.63-16.34.52-.74.88-1.59,1.47-2.27.99-1.14,2.13-3.1,3.15-3.07,2.46.08,4.97.4,6.72,2.96,3.96,5.79,7.91,11.71,12.84,16.74,2.33,2.37,6.83,3.11,10.5,4.05,5.43,1.39,9.84-.39,13.88-4.15,5.06-4.7,9.65-9.49,12.16-15.91,1.69-4.33,1.56-8.41-.97-12.16-3.62-5.38-6.94-11.23-11.72-15.59-7.63-6.95-15.74-13.93-26.67-16.11-5.52-1.1-11.3-1-16.96-1.49-3.26-.28-5.91-2.23-6.44-4.84-1.26-6.23-1.66-12.62-2.45-19.31,5.78,1.25,11.01,2.6,16.32,3.49,9.71,1.63,19.43,3.72,29.23,4.21,5.73.28,11.71-1.84,17.37-3.51,3.18-.94,4.3-4.92,2.9-8.12-2.63-6-4.65-12.43-8.39-17.77-3.92-5.59-9.55-10.12-14.48-15.08-.92-.93-2.03-1.7-2.74-3,2.03,1.31,4.11,2.56,6.07,3.95,32.34,23.04,52.69,53.1,60.25,90.54,3.67,18.2,3.29,36.43-.39,54.62-.47,2.33-1.5,3.91-3.93,4.76-3.32,1.16-6.58,2.46-9.85,3.75-1.73.68-2.88.18-3.49-1.38-1.26-3.22-2.6-6.43-3.64-9.71-1.06-3.37-3.33-5.45-6.75-5.68-2.9-.2-5.7,1.53-7.09,4.48-2.71,5.76-5.51,11.5-8.01,17.34-1.85,4.34-4.17,8.25-7.64,11.71-6.41,6.39-10.21,13.79-11.06,22.85-1.26,13.44-4.84,26.53-9.52,39.31-.85,2.32-1.67,4.77-3.14,6.74-1.62,2.16-3.65,4.39-6.07,5.63-11.95,6.14-24.72,10.43-38.02,13.19-14.86,3.08-29.92,4.32-45.15,2.99-1.78-.16-3.58-.14-5.36-.3-1.65-.15-3.28-.43-4.9-1.1,7.14,0,14.31-.36,21.42.09,9.38.58,18.04-1.49,26.74-4.42,14.59-4.91,29.35-9.38,44.02-14.11,1.65-.53,3.33-1.27,4.67-2.3,2.26-1.73,2.77-4.24,1.9-6.73-.86-2.47-2.74-4.08-5.73-4.43-10.95-1.3-21.89-2.68-32.83-4.04-.62-.08-1.24-.27-1.86-.3-2.92-.16-3.65-1.53-3.56-4.23.41-13.11-6.43-23.18-16.15-31.77-7.79-6.89-15.92-13.46-23.93-20.13-2.36-1.97-5.19-2.5-8.25-1.93-3.5.66-6.97,1.49-10.49,2-3.78.55-6.26,2.52-8.04,5.54-.65,1.1-1.25,2.48-2.3,3.1-7.08,4.17-13.68,9.22-22.1,11.05-6.75,1.47-13.48,2.98-20.21,4.53-2.54.59-4.24.14-5.66-2.25-1.72-2.91-3.72-5.81-6.21-8.14-4.75-4.42-4.9-9.49-3.5-15.01.15-.57.12-1.21.37-1.73,2.97-6.36.45-11.51-4.19-16.05-5.3-5.18-10.69-10.29-16.25-15.23-1.93-1.72-2.27-2.77-.49-4.81,5.28-6.04,5.24-13.18,3.63-20.25-1.46-6.4-3.42-12.73-5.71-18.91-1.49-4.03-5.48-6.08-9.58-7.55-7.09-2.54-14.46-2.2-21.83-1.56-.7.06-1.4.12-2.13.19,3.26-36.69,59.08-93.52,99.03-100.57Zm-29.97,244.42c-7.18-3.06-14.59-2.47-22.02-1.95-2.06.14-3.56-.02-5.08-1.41-20.88-19.1-35.07-41.76-42.4-68.27-4.42-16-5.67-32.15-4.31-48.54.13-1.57.38-3.13.59-4.69.84-6.44.14-4.99,5.98-5.61,5.17-.55,10.45-.21,15.68-.14,2.19.03,3.71,1.02,4.19,3.25,1.3,6.12,2.96,12.19,3.93,18.35.29,1.86-.72,4.26-1.92,5.91-5.89,8.07-5.28,14.38,2.25,21.29,5.24,4.81,10.37,9.75,15.55,14.62,1.45,1.37,1.63,2.83,1.29,4.79-.74,4.35-1.23,8.76-1.3,13.16-.07,4.11,1.62,7.75,4.36,11.11,4.08,4.99,7.87,10.21,11.58,15.46,2.88,4.07,4.97,5.39,9.95,4.31,11.65-2.53,23.53-4.54,34.73-8.29,9.77-3.28,18.97-8.18,25.85-16.2,1.36-1.59,6.57-2.52,8.07-1.42,10.03,7.28,19.95,14.77,27.69,24.38,4.07,5.06,5.45,10.75,5.24,16.92-.03.89-.08,1.77-.07,2.66.03,5.63,2.32,8.74,8,10.73,1.77.62,3.6,1.08,5.43,1.51,1.68.4,3.4.66,5.11.98.02.2.04.41.06.61-5.19,1.68-10.5,3.1-15.56,5.09-7.64,3.02-15.49,3.86-23.69,3.54-7.15-.27-14.33.13-21.48-.15-3.15-.12-6.46-.75-9.35-1.92-16.19-6.55-32.32-13.24-48.37-20.08Zm42.6,32.46c-9.27-.25-40.17-13.05-48.55-20.23,16.56,6.9,32.37,13.49,48.55,20.23Zm166.67-10.04c-69.25,61.89-186.02,65.16-260.32-2.52C-8.56,212.54.74,100.42,64.57,38.25c4.62,4.48,9.25,8.96,13.99,13.55-31.42,32.95-46.47,72.12-43.56,116.82,2.72,41.7,21,76.95,53.42,105.62,59.89,52.96,159.94,60.07,229.91.9,4.68,4.45,9.37,8.91,14.05,13.37Zm-30.98-17.79c.63-2.37,1.29-4.35,1.68-6.37,2.06-10.62,3.92-21.28,6.16-31.86.55-2.6,1.76-5.35,3.51-7.4,5.75-6.74,12.35-12.92,14.59-21.99,6.11,7.67,13.63,7.21,21.65,4.28-.15,12.93-29.27,51.68-47.6,63.35Z"/>
  <path class="cls-2" d="m54.06,122.23c3.26-36.69,59.08-93.52,99.03-100.57-.91.99-1.45,1.8-2.2,2.36-8.46,6.35-10.6,14.87-10.21,24.54.16,4.14-.95,8.33-1.57,12.48-.27,1.83-1.45,2.51-3.49,2.57-10.95.29-21.78,1.22-32.5,3.67-15.3,3.5-21.53,13.56-23.55,26.3-1.2,7.58.74,13.42,7.55,17.94,6.65,4.41,12.64,9.79,19.61,13.64,6.94,3.83,12.38,1.57,16.12-5.16,3.01-5.42,11.76-7.9,17.06-4.55,7.74,4.9,16.13,7.38,25.74,6.91-2.22,3.18-4.44,6.14-6.4,9.24-3,4.74-5.69,9.87-3.63,15.37,2.17,5.78,5.02,11.42,8.3,16.73,2.57,4.14,8.47,4.69,13.08,1.41,5.6-3.98,10.96-8.3,16.08-12.82,4.17-3.67,7.83-7.85,12.19-12.28-.61,2.28-1.02,4.19-1.63,6.06-2.11,6.47-1.89,12.59,3.84,17.4,4.48,3.76,10.06,4.78,15.94,3.99,4.43-.6,9.11-.76,13.19-2.26,8.21-3.01,13.01-9.69,17.63-16.34.52-.74.88-1.59,1.47-2.27.99-1.14,2.13-3.1,3.15-3.07,2.46.08,4.97.4,6.72,2.96,3.96,5.79,7.91,11.71,12.84,16.74,2.33,2.37,6.83,3.11,10.5,4.05,5.43,1.39,9.84-.39,13.88-4.15,5.06-4.7,9.65-9.49,12.16-15.91,1.69-4.33,1.56-8.41-.97-12.16-3.62-5.38-6.94-11.23-11.72-15.59-7.63-6.95-15.74-13.93-26.67-16.11-5.52-1.1-11.3-1-16.96-1.49-3.26-.28-5.91-2.23-6.44-4.84-1.26-6.23-1.66-12.62-2.45-19.31,5.78,1.25,11.01,2.6,16.32,3.49,9.71,1.63,19.43,3.72,29.23,4.21,5.73.28,11.71-1.84,17.37-3.51,3.18-.94,4.3-4.92,2.9-8.12-2.63-6-4.65-12.43-8.39-17.77-3.92-5.59-9.55-10.12-14.48-15.08-.92-.93-2.03-1.7-2.74-3,2.03,1.31,4.11,2.56,6.07,3.95,32.34,23.04,52.69,53.1,60.25,90.54,3.67,18.2,3.29,36.43-.39,54.62-.47,2.33-1.5,3.91-3.93,4.76-3.32,1.16-6.58,2.46-9.85,3.75-1.73.68-2.88.18-3.49-1.38-1.26-3.22-2.6-6.43-3.64-9.71-1.06-3.37-3.33-5.45-6.75-5.68-2.9-.2-5.7,1.53-7.09,4.48-2.71,5.76-5.51,11.5-8.01,17.34-1.85,4.34-4.17,8.25-7.64,11.71-6.41,6.39-10.21,13.79-11.06,22.85-1.26,13.44-4.84,26.53-9.52,39.31-.85,2.32-1.67,4.77-3.14,6.74-1.62,2.16-3.65,4.39-6.07,5.63-11.95,6.14-24.72,10.43-38.02,13.19-14.86,3.08-29.92,4.32-45.15,2.99-1.78-.16-3.58-.14-5.36-.3-1.65-.15-3.28-.43-4.9-1.1,7.14,0,14.31-.36,21.42.09,9.38.58,18.04-1.49,26.74-4.42,14.59-4.91,29.35-9.38,44.02-14.11,1.65-.53,3.33-1.27,4.67-2.3,2.26-1.73,2.77-4.24,1.9-6.73-.86-2.47-2.74-4.08-5.73-4.43-10.95-1.3-21.89-2.68-32.83-4.04-.62-.08-1.24-.27-1.86-.3-2.92-.16-3.65-1.53-3.56-4.23.41-13.11-6.43-23.18-16.15-31.77-7.79-6.89-15.92-13.46-23.93-20.13-2.36-1.97-5.19-2.5-8.25-1.93-3.5.66-6.97,1.49-10.49,2-3.78.55-6.26,2.52-8.04,5.54-.65,1.1-1.25,2.48-2.3,3.1-7.08,4.17-13.68,9.22-22.1,11.05-6.75,1.47-13.48,2.98-20.21,4.53-2.54.59-4.24.14-5.66-2.25-1.72-2.91-3.72-5.81-6.21-8.14-4.75-4.42-4.9-9.49-3.5-15.01.15-.57.12-1.21.37-1.73,2.97-6.36.45-11.51-4.19-16.05-5.3-5.18-10.69-10.29-16.25-15.23-1.93-1.72-2.27-2.77-.49-4.81,5.28-6.04,5.24-13.18,3.63-20.25-1.46-6.4-3.42-12.73-5.71-18.91-1.49-4.03-5.48-6.08-9.58-7.55-7.09-2.54-14.46-2.2-21.83-1.56-.7.06-1.4.12-2.13.19Z"/>
  <path class="cls-2" d="m173.84,151.21c-1.65-2.71-3.04-4.6-3.94-6.67-.44-1.01-.4-2.6.17-3.53,2.19-3.58,4.5-7.12,7.1-10.44,3.29-4.19,5.5-8.55,4.89-13.92-.24-2.14-.03-4.33-.06-6.5-.08-5.45-4.79-8.43-10.16-6.27-2.79,1.12-5.29,2.86-8.07,3.98-1.62.65-3.72,1.21-5.29.79-3.39-.9-6.96-1.95-9.77-3.84-12.16-8.15-32.1-2.88-37.75,7.5-1.12-.66-2.32-1.2-3.31-1.97-4.2-3.28-8.42-6.54-12.43-10.02-.97-.85-1.73-2.55-1.61-3.77.91-9.34,4.13-14.56,14.12-16.67,9.93-2.1,19.93-3.22,30.05-2.87,6.48.23,10.25-2.81,12.89-7.71,2.89-5.35,4.36-11.04,4.23-17.07-.03-1.38.09-2.77-.06-4.14-.63-5.98,1.11-10.94,6.18-14.97,3.02-2.4,5.36-5.54,8.2-8.17,1.94-1.8,3.02-3.75,2.73-6.29-.2-1.7.56-2.39,2.4-2.7,32.38-5.49,63.62-2.13,93.73,10.34,2.1.87,3.26,1.98,3.4,4.32.19,3.33,1.05,6.62,1.35,9.95.32,3.44,2.52,5.11,5.42,6.96,9.42,6.05,17.8,13.07,21.12,24.79-2.57-.24-4.68-.34-6.76-.66-9.95-1.52-19.93-2.86-29.8-4.74-6.15-1.17-12.12-3.19-18.16-4.85-5.12-1.41-9.67,1.48-9.41,6.43.37,6.75,1.25,13.48,1.91,20.22.37,3.81.37,7.69,1.24,11.4.57,2.45,2.33,4.68,3.67,6.95.39.66,1.21,1.09,1.76,1.68,4.62,4.88,10.34,7.05,17.35,6.7,3.34-.17,6.72.34,10.07.65,6.27.58,10.16,5.27,15.28,7.81,6.57,3.25,8.85,9.49,12.92,14.49,3.14,3.85,3.13,5.89-.39,9.59-1.8,1.9-3.88,3.6-6,5.2-1.94,1.46-3.95,1.22-5.42-.73-3.87-5.13-7.47-10.45-11.58-15.4-1.72-2.07-4.23-4.07-6.81-4.87-4.02-1.25-8.39-1.7-12.65-2.02-4.98-.38-8.46,1.94-11.03,5.99-2.82,4.47-6.01,8.76-9.26,12.97-2.4,3.1-5.62,4.89-10.01,4.51-1.61-.14-3.29.49-4.94.74-3.69.56-5.22-.93-4.02-4.23,4.24-11.68,1.56-22.07-6.44-31.52-2.08-2.46-4.38-4.62-8.17-4.04-3.76.58-5.32,3.08-6.33,6.19-1.34,4.13-2.83,8.22-4.31,12.31-.3.82-.68,1.73-1.31,2.33-5.53,5.23-11.13,10.41-16.92,15.79Z"/>
  <path class="cls-2" d="m318.34,275.14c4.68,4.45,9.37,8.91,14.05,13.37-69.25,61.89-186.02,65.16-260.32-2.52C-8.56,212.54.74,100.42,64.57,38.25c4.62,4.48,9.25,8.96,13.99,13.55-31.42,32.95-46.47,72.12-43.56,116.82,2.72,41.7,21,76.95,53.42,105.62,59.89,52.96,159.94,60.07,229.91.9Z"/>
  <path class="cls-2" d="m241.56,279.59c-5.19,1.68-10.5,3.1-15.56,5.09-7.64,3.02-15.49,3.86-23.69,3.54-7.15-.27-14.33.13-21.48-.15-3.15-.12-6.46-.75-9.35-1.92-16.19-6.55-32.32-13.24-48.37-20.08-7.18-3.06-14.59-2.46-22.02-1.95-2.06.14-3.56-.02-5.08-1.41-20.88-19.1-35.07-41.76-42.4-68.27-4.42-16-5.67-32.15-4.31-48.54.13-1.57.38-3.13.59-4.69.84-6.44.14-4.99,5.98-5.61,5.17-.55,10.45-.21,15.68-.14,2.19.03,3.71,1.02,4.19,3.25,1.3,6.12,2.96,12.19,3.93,18.35.29,1.86-.72,4.26-1.92,5.91-5.89,8.07-5.28,14.38,2.25,21.29,5.24,4.81,10.37,9.75,15.55,14.62,1.45,1.37,1.63,2.83,1.29,4.79-.74,4.35-1.23,8.76-1.3,13.16-.07,4.11,1.62,7.75,4.36,11.11,4.08,4.99,7.87,10.21,11.58,15.46,2.88,4.07,4.97,5.39,9.95,4.31,11.65-2.53,23.53-4.54,34.73-8.29,9.77-3.28,18.97-8.18,25.85-16.2,1.36-1.59,6.57-2.52,8.07-1.42,10.03,7.28,19.95,14.77,27.69,24.38,4.07,5.06,5.45,10.75,5.24,16.92-.03.89-.08,1.77-.07,2.66.03,5.63,2.32,8.74,8,10.73,1.77.62,3.6,1.08,5.43,1.51,1.68.4,3.4.66,5.11.98.02.2.04.41.06.61Z"/>
  <path class="cls-2" d="m327.36,203.09c6.11,7.67,13.63,7.21,21.65,4.28-.15,12.93-29.27,51.68-47.6,63.35.63-2.37,1.29-4.35,1.68-6.37,2.06-10.62,3.92-21.28,6.16-31.86.55-2.6,1.76-5.35,3.51-7.4,5.75-6.74,12.35-12.92,14.59-21.99Z"/>
  <path class="cls-2" d="m117.18,278.32c16.56,6.9,32.37,13.49,48.55,20.23-9.27-.25-40.17-13.05-48.55-20.23Z"/>
</svg>