<?xml version="1.0" encoding="UTF-8"?>
<svg id="Layer_1" data-name="Layer 1" xmlns="http://www.w3.org/2000/svg" viewBox="0 0 98.03 158.82">
  <defs>
    <style>
      .cls-1 {
        fill: #5b2e91;
        stroke-width: 0px;
      }
    </style>
  </defs>
  <path class="cls-1" d="m86.72,145.83c-14.23-21.05-27.45-40.37-40.43-59.86C31.81,64.21,17.43,42.38,3.3,20.39,1.29,17.27.06,13.09,0,9.38-.08,3.03,3.6.04,9.98.03,34.88,0,59.77.03,84.66,0c3.66,0,7.52-.31,9.38,3.73,2.11,4.6,2.73,9.28-.45,13.85-10.82,15.53-21.57,31.11-32.35,46.68-1.83,2.64-3.66,5.29-5.55,8.01-3.95-2.09-2.36-4.31-.83-6.63,10.82-16.4,21.61-32.82,32.4-49.25,1.15-1.76,2.18-3.6,4.06-6.73-27.76.64-54.22,1.25-81.78,1.88,5.51,8.08,10.46,15.3,15.37,22.54,23.06,34.02,46.09,68.07,69.2,102.06,2.97,4.37,4.7,8.87,3.58,14.2-1.2,5.76-4.23,8.42-10.05,8.43-25.07.03-50.15.06-75.22-.01-10.21-.03-15.87-9.59-10.12-18.08,12.63-18.63,25.9-36.84,38.91-55.22,3.82,2.06,2.69,4.19,1.08,6.69-11.48,17.89-22.88,35.83-34.25,53.67h78.68Z"/>
  <path class="cls-1" d="m12.31,144.08c3.86-5.51,5.9-13.24,15.06-14.39,2.39-.3,5.29-2.21,6.6-4.26,3.37-5.24,7.59-8.56,14.31-8.59.31-6.88.61-13.29.9-19.71.21,0,.42,0,.63,0v18.74c.72.65.98,1.09,1.25,1.1,16.69.9,22.89,14.05,31.01,27.11H12.31Z"/>
  <path class="cls-1" d="m24.21,28.83c10.18.96,18.78,2.51,26.33,8.04,4.5,3.29,9.37,6.08,14.72,9.51-4.24,6.16-9.22,13.41-14.58,21.21-8.9-13.04-17.36-25.42-26.46-38.75Z"/>
</svg>