<?xml version="1.0" encoding="UTF-8"?><svg id="Layer_1" xmlns="http://www.w3.org/2000/svg" viewBox="0 0 254 134"><defs><style>.cls-1{fill:#000;}.cls-1,.cls-2{stroke-width:0px;}.cls-3{fill:#fff;stroke:#150200;stroke-miterlimit:10;stroke-width:7px;}.cls-2{fill:#150200;}</style></defs><path class="cls-2" d="M127,10c31.43,0,57,25.57,57,57s-25.57,57-57,57-57-25.57-57-57S95.57,10,127,10M127,0C90,0,60,30,60,67s30,67,67,67,67-30,67-67S164,0,127,0h0Z"/><path class="cls-3" d="M82.73,30.51C52.5,9.5,46.5,14.5,46.5,14.5c0,0-7-5,6-5s10-10,13,0-26,5,1,0"/><path class="cls-3" d="M170.82,29.43c30.23-21.01,36.23-16.01,36.23-16.01,0,0,7-5-6-5-13,0-10-10-13,0s26,5-1,0"/><path class="cls-1" d="M204,65.5H50c-27.5,0-50,.68-50,1.5s22.5,1.5,50,1.5h154c27.5,0,50-.68,50-1.5s-22.5-1.5-50-1.5h0Z"/></svg>