<?xml version="1.0" encoding="UTF-8"?>
<svg id="Layer_1" data-name="Layer 1" xmlns="http://www.w3.org/2000/svg" viewBox="0 0 393.28 320.49">
  <defs>
    <style>
      .cls-1 {
        fill: #5b2e91;
        stroke-width: 0px;
      }
    </style>
  </defs>
  <path class="cls-1" d="m392.37,61.15c.28,2.81.74,5.61.8,8.42.26,12.39.17,24.73-1.78,37.05-2.52,15.85-7.34,30.76-15.82,44.43-6.86,11.06-16.06,19.85-26.42,27.54-5.81,4.32-12.13,7.69-19.37,8.54-6.42.75-12.92,1.18-19.38,1.16-7.27-.03-14.53-.72-21.94-1.46,4.08-1.2,8.13-2.53,12.26-3.58,5.61-1.43,11.56-1.94,16.84-4.12,9.23-3.8,17.28-9.55,22.74-18.26.58-.93.85-2.05,1.27-3.09-.16-.22-.32-.44-.48-.66-1.28.35-2.66.51-3.83,1.09-9.57,4.76-19.65,7.47-30.36,7.8-5.9.19-11.81.31-17.68.82-12.35,1.06-24.01,4.7-35.36,9.59-10.44,4.5-17.87,12.46-24.95,20.9-1.52,1.81-3.18,3.49-4.78,5.23-.26-.17-.52-.33-.77-.5,2.74-5.15,5.19-10.48,8.29-15.4,7.52-11.92,18.01-20.5,30.79-26.39,10.63-4.89,21.91-7.32,33.3-9.61,12.24-2.46,24.39-5.46,36.48-8.64,8.28-2.18,16.17-5.53,23.11-10.72,11.87-8.89,20.31-20.43,26.11-34,4.75-11.11,7.52-22.8,10.24-34.51.13-.56.29-1.1.44-1.66.09,0,.19.01.28.02Z"/>
  <path class="cls-1" d="m370.36,189.41c-6.29,10-11.37,20.83-20.72,28.68-6.68,5.61-14.45,8.65-22.95,9.24-12.76.89-25.58.92-38.36,1.64-12.67.72-24.85,3.28-35.28,11.2-1.15.87-2.19,1.88-3.28,2.82.08.24.16.48.25.72.83.08,1.69.35,2.48.2,11.9-2.16,23.29-.8,34.1,4.78,1.64.85,3.29,1.7,4.9,2.88-42.24,10.22-75.06,33.87-100.09,68.9-.18-.16-.35-.32-.53-.48,1.26-2.42,2.45-4.88,3.78-7.26,1.38-2.46,2.86-4.88,4.35-7.28,8.42-13.55,19.3-25.01,30.97-35.71,6.5-5.96,13.8-10.9,21.6-15.09.8-.43,1.32-1.38,1.96-2.08l-.44-1.03c-4.15.34-8.35.38-12.44,1.09-4.02.7-7.93,2.08-12.37,3.29,1.01-1.38,1.76-2.41,2.52-3.45,7.47-10.23,15.9-19.44,27.08-25.76,10.47-5.92,21.32-10.92,33.42-12.25,7.1-.78,14.27-.87,21.41-1.24,3.41-.18,6.82-.26,10.22-.46.77-.05,1.52-.39,2.24-.93-27.5-10.97-54.97-10.9-82.46.64-.1-.37-.21-.74-.31-1.11,2.05-1.61,3.95-3.49,6.18-4.78,10.45-6.05,21.87-8.53,33.83-8.83,3.83-.1,7.67-.22,11.49.02,10.36.65,20.7,1.53,31.06,2.22,6.69.45,13.45,1.46,20.07.89,8.54-.73,15.75-5.41,22.6-10.37.73-.53,1.5-1.01,2.25-1.52.15.14.31.29.46.43Z"/>
  <path class="cls-1" d="m43.53,157.3c.62,1.61.96,3.42,1.92,4.8,7.11,10.29,15.88,18.14,28.86,20.28,4.58.75,8.97,2.61,14.03,4.14-.9.62-1.07.85-1.25.85-7.9.2-15.81.25-23.7.58-11.3.47-20.31-4.21-28.46-11.59-11.25-10.19-19.63-22.35-25.07-36.41-2.61-6.76-4.18-13.94-5.98-20.99C-.05,103.67.02,88.03,0,72.4c0-3.21.27-6.42.95-9.71.75,3.43,1.54,6.84,2.26,10.28,3.09,14.85,7.38,29.22,15.42,42.3,8.33,13.54,19.85,22.94,34.99,27.58,9.88,3.03,19.94,5.51,29.99,7.95,10.36,2.51,20.64,5.31,29.73,10.96,5.03,3.12,9.32,7.45,13.87,11.31,1.26,1.07,2.28,2.42,3.41,3.64,3.27,3.51,3.53,5.1,1.47,10.05-.85-.77-1.56-1.55-2.39-2.16-4.54-3.33-8.74-7.44-13.76-9.73-7.03-3.2-14.58-5.45-22.1-7.31-4.69-1.16-9.73-.94-14.62-1.17-8.5-.39-16.9-1.2-24.75-4.85-3.36-1.56-6.69-3.19-10.04-4.79-.3.19-.61.37-.91.56Z"/>
  <path class="cls-1" d="m209.95,228.31c-4.6-5-7.18-10.27-8.15-16.45-2.19-14.06-1.79-27.81,4.31-40.97,5.69-12.27,14.2-22.06,26.14-28.55,11.01-5.98,21.14-13.19,30.65-21.28,13.6-11.57,26.19-24.11,36.1-39.1,4.52-6.84,8.07-14.13,9.49-22.29.33-1.86.14-3.82.22-5.73.06-1.46.18-2.92.28-4.38.27-.07.55-.15.82-.22,1.51,3.62,3.35,7.14,4.47,10.88,5.2,17.38.37,32.26-11.31,45.6-10.06,11.49-21.97,20.76-34.09,29.85-5.64,4.24-11.11,8.72-16.91,12.73-6.68,4.61-13.71,8.73-20.47,13.23-7.71,5.14-14.31,11.36-18.42,19.88-4.62,9.56-5.68,19.72-4.98,30.12.36,5.37,1.17,10.7,1.86,16.68Z"/>
  <path class="cls-1" d="m200.74,36.11c1.6,11.7-2.35,21.35-8.76,30.26-1.21,1.69-2.45,3.36-3.58,5.11-1.49,2.31-.53,4.05,2.27,4.42,2.91.39,5.13-1.19,7.3-2.61,2.88-1.87,5.55-4.08,8.74-5.78-2.42,3.11-4.78,6.28-7.28,9.33q-2.17,2.65.07,5.31c5.68,6.75,8.61,14.76,9.77,23.33.83,6.06.78,12.24,1.14,18.37.15,2.57-.64,4.59-2.77,6.27-3.24,2.55-6.26,5.39-9.37,8.1-.24-.1-.47-.2-.71-.3.15-1.84.17-3.7.48-5.5,1.29-7.38,2.52-14.83,1.59-22.29-.96-7.7-3.98-14.46-11.78-17.74-5.02-2.11-9.61-.53-13.84,2.3-4.96,3.31-9.54,7.31-14.8,10.02-4.43,2.28-9.53,3.37-14.43,4.56-7.89,1.91-13.71,6.38-17.85,13.24-.21.35-.46.67-.99,1.43-1.04-3.38-.76-6.39-.36-9.36.95-7.11,5.05-12.69,9.06-18.33.94-1.32,1.42-3.07,1.76-4.69.77-3.63.8-7.49,2.07-10.91,2.39-6.43,7.98-9.3,14.18-11.4,5.33-1.8,10.67-3.72,15.67-6.26,7.54-3.83,12.77-10.24,17.26-17.25.35-.54.68-1.09,1.03-1.64l.71.3c-1.44,3.7-2.37,7.71-4.41,11.05-6.87,11.26-16.75,19.17-28.84,24.35-1.83.78-3.7,1.53-5.4,2.54-3.68,2.17-5.49,6.92-4.12,10.86.18.53,1.48,1.18,1.98,1,4.33-1.54,8.14-3.68,11.23-7.41,3.58-4.31,7.81-8.12,12.01-11.87,4.46-3.98,9.27-7.57,13.84-11.44,6.45-5.45,11.44-12.03,14.66-19.86.95-2.31,1.57-4.75,2.45-7.48Z"/>
  <path class="cls-1" d="m345.93,0c3.66,5.21,7.47,10.33,10.96,15.65,6.08,9.28,11.27,19.01,13.2,30.11,3.07,17.61,1.04,34.55-6.92,50.67-4.18,8.47-9.21,16.35-15.94,23.05-.59.59-1.18,1.18-1.78,1.75-.29.28-.63.52-1.2.99,1.73-4.74,3.56-9.11,4.9-13.62,1.85-6.19,3.5-12.44,4.89-18.74.87-3.94,1.18-8.01,1.56-12.05.09-.91-.6-1.89-.93-2.83-.55.72-1.28,1.36-1.63,2.16-8.14,18.82-20.97,33.79-37.51,45.69-5.25,3.78-10.59,7.43-16.23,10.89,3.81-5.59,7.61-11.19,11.42-16.78,8.14-11.94,16.58-23.7,24.33-35.88,6.35-9.98,10.15-21.15,11.2-32.94.76-8.66.6-17.42.41-26.13-.16-7.2-.96-14.38-1.48-21.56.25-.14.5-.28.75-.42Z"/>
  <path class="cls-1" d="m78.73,132.52c-20.87-14.95-37.66-33.02-45.42-58.22-.33.07-.65.15-.98.22-.24,1.21-.8,2.46-.65,3.61.76,5.75,1.38,11.55,2.66,17.19,1.79,7.9,4.12,15.68,6.21,23.51.23.85.46,1.69.77,2.88C12.35,89.16,9.93,39.56,40.49.1c0,2.73.25,5.26-.04,7.73-1.66,14.1-1.78,28.25-.36,42.33,1.47,14.64,6.84,28.11,14.33,40.73,7.38,12.41,14.74,24.83,22.09,37.27.83,1.4,1.48,2.91,2.22,4.37Z"/>
  <path class="cls-1" d="m177.23,111.97c2.01.67,4.18,1.04,5.98,2.07,3.27,1.86,4.21,5.63,2.37,9.67-2.02,4.45-4.35,8.77-6.65,13.09-5.56,10.48-11.7,20.69-16.62,31.46-4.66,10.19-7.26,21.1-7.45,32.48-.28,16.25,3.13,31.74,8.64,46.94,4.93,13.62,11.32,26.53,18.16,39.24.23.43.4.88.24,1.63-1.51-1.65-3.2-3.18-4.51-4.99-6.83-9.4-13.98-18.61-20.22-28.39-5.88-9.21-10.93-18.97-16.05-28.64-3.79-7.17-4.07-14.95-3.6-22.99.83-14.17,6.32-26.46,13.75-38.18,5.28-8.33,10.51-16.69,15.56-25.16,2.59-4.34,4.82-8.89,7.07-13.42,2.23-4.49,4.16-9.1,2.62-14.42.24-.13.47-.27.71-.4Z"/>
  <path class="cls-1" d="m19.68,189.43c4.1,2.78,8.12,5.69,12.31,8.32,6,3.76,12.63,4.4,19.48,3.31,13.4-2.14,26.84-3.76,40.43-3.25,10.05.37,19.85,2.03,28.59,7.42,2.64,1.63,4.92,3.82,7.05,6.17-6.84-2.16-13.59-4.64-20.53-6.4-11.36-2.89-22.72-2.18-33.93,1.15-4.37,1.3-8.76,2.51-13.13,3.77-.4.11-.85.19-1.16.44-.48.4-.86.92-1.28,1.39.57.36,1.12.98,1.72,1.04,4.39.38,8.78.64,13.17.94,4.47.3,8.95.6,13.42.91,7.05.5,13.27,3.51,19.46,6.53,14.78,7.23,25.46,18.65,33.08,33.23-1.42-1.11-2.84-2.22-4.26-3.34-1.44-1.13-2.84-2.31-4.3-3.41-7.34-5.54-14.23-11.82-22.99-15.16-5.52-2.11-11.23-3.45-17.21-3.64-10.71-.34-21.44-.61-32.12-1.44-10.96-.85-19.59-6.49-25.58-15.45-4.73-7.08-8.43-14.84-12.58-22.3.12-.07.24-.14.36-.22Z"/>
  <path class="cls-1" d="m71.42,49.05c.19,2.16.5,3.72.43,5.26-.43,9.88,2.86,18.77,7.13,27.4,5.56,11.22,12.77,21.35,20.65,31.02,8.8,10.79,18.43,20.74,29.49,29.27,6.45,4.97,9.41,11.77,9.92,20.31-2.75-2-5.16-3.69-7.51-5.46-16.95-12.8-32.84-26.8-47.52-42.13-7.64-7.98-13.67-17.07-16.95-27.82-2.42-7.96-2.19-15.92-.43-23.87.87-3.94,2.35-7.75,3.6-11.6.21-.65.61-1.25,1.18-2.37Z"/>
  <path class="cls-1" d="m155.03,284.72c-1.44-1.39-2.9-2.7-4.26-4.11-4.94-5.11-11.11-7.56-17.98-8.84-6.18-1.15-12.27-2.75-18.39-4.16-3.63-.84-7.25-1.72-10.89-2.54-8.86-1.99-14-8.4-18.94-16,3.21,1.25,5.85,2.49,8.61,3.33,5.93,1.8,11.89,3.55,17.9,5.05,7.54,1.89,15.2,3.31,22.71,5.29,10.96,2.89,18.14,9.88,21.39,20.81.07.23.1.48.13.72,0,.06-.08.14-.28.44Z"/>
</svg>