<?xml version="1.0" encoding="UTF-8"?>
<svg id="Layer_1" data-name="Layer 1" xmlns="http://www.w3.org/2000/svg" viewBox="0 0 60.67 57.66">
  <defs>
    <style>
      .cls-1, .cls-2, .cls-3, .cls-4 {
        stroke-width: 0px;
      }

      .cls-2 {
        fill: #662d91;
      }

      .cls-3 {
        fill: #5b2e91;
      }

      .cls-4 {
        fill: #fff;
      }
    </style>
  </defs>
  <path class="cls-3" d="m12.91,5.11c-.96-1.19-1.75-2.73-3.68-1.62-.71-1.05-1.28-2-.33-3.03.66-.72,2.02-.58,3.06.32,2.65,2.31,5.44,4.4,8.61,5.95.31.15.62.3,1.06.19-1.11-.65-2.23-1.3-3.34-1.97-.79-.47-1.61-.91-2.31-1.49-.4-.33-.57-.93-.84-1.41.58-.14,1.27-.56,1.71-.38,1.3.53,2.54,1.23,3.72,1.98,1.85,1.18,3.68,2.38,5.43,3.71,1.43,1.09,2.72,2.37,4.16,3.61-1.03-1.08-1.58-2.33-.9-3.74.26-.55.76-.99,1.14-1.48.44.42,1.19.8,1.27,1.28.63,3.94,3.11,6.42,6.04,8.88,2.64,2.22,3.7,5.62,4.09,9.03.31,2.74,1.91,4.35,4.05,5.68.23.14.48.26.74.39-.83,1.11-1.63,2.18-2.43,3.25,0,0,.05-.05.05-.05-2.26,2.05-3.44,4.7-4.22,7.57-.1.39-.16.79-.26,1.27-.86-.77-1.6-1.43-2.34-2.09l.05.05c-.83-.55-1.6-1.43-2.5-1.58-2.21-.38-3.98-1.55-5.82-2.63-.56-.47-1.13-.94-1.69-1.41-1.09-1.17-2.2-2.33-3.27-3.52-.79-.88-1.52-1.81-2.28-2.72l.04.05c-.23-.6-.43-1.21-.69-1.8-1.61-3.54-2.98-7.24-6.13-9.83l.06.04c-.59-.93-1.29-1.81-1.75-2.81-.41-.9-.65-1.91-.77-2.9-.05-.45.38-.95.58-1.43.47.21.95.41,1.41.63.16.08.3.21.44.32l3.1,3.76c.11-.1.22-.2.33-.3-1.11-1.18-2.22-2.37-3.34-3.55-.46-.98-1.1-1.59-2.31-1.23-.26.08-.6-.13-.91-.21l.04.04c-.61-.74-1.35-1.41-1.8-2.23-.49-.9-.81-1.93-.98-2.94-.06-.34.53-1.02.94-1.13.38-.11.95.28,1.36.55.46.29.84.7,1.25,1.06,2.05,1.49,4.11,2.99,6.16,4.48.1-.14.19-.29.29-.43-2.11-1.4-4.21-2.79-6.32-4.19Zm14.23,13.49c-1.12-2.95-3.3-4.88-5.37-6.89,1.76,2.25,3.51,4.5,5.37,6.89Zm-5.71-1.71c-.11.08-.21.15-.32.23.88,1.32,1.76,2.64,2.64,3.96.1-.07.2-.14.29-.2-.87-1.33-1.75-2.65-2.62-3.98Z"/>
  <path class="cls-1" d="m53.18,29.9c1.25-1.29,2.75-2.07,4.56-2.21,1.34-.1,2.13.48,2.43,1.79,1.12,4.96.34,9.61-2.36,13.91-2.61,4.17-5.99,7.65-9.94,10.57-.86.63-1.6,1.43-2.5,1.99-.61.38-1.6.86-2.06.62-.71-.38-1.35-1.27-1.57-2.07-.35-1.26-.32-2.61-.45-3.93-.1-1.02.17-1.44,1.36-1.74,1.64-.41,3.13-1.43,4.68-2.19,0,0-.05.04-.05.04.43-.34.87-.68,1.3-1.01.1.04.21.07.31.11-.39,2.05-.79,4.1-1.18,6.15.3-.33.54-.69.59-1.08.33-2.31.9-4.63.86-6.93-.08-3.9.78-7.49,2.47-10.95.4-.82.69-1.7,1.04-2.55.16-.17.33-.35.49-.52Z"/>
  <path class="cls-1" d="m37.39,40.96c.14.29.2.7.42.84,1.6.99.98,2.2.38,3.41-.35.71-.7,1.41-1.06,2.11.1.06.21.12.31.18.64-1.29,1.28-2.58,2-4.02.48,1.51.94,2.9,1.34,4.3.06.22-.08.54-.21.77-1.85,3.12-4.23,5.8-7.47,7.41-1.46.72-3.36.73-5.07.74-1.27,0-1.63-.87-1.56-2.93,1.91-.04,3.98.89,5.88-.78-3.22.87-6.25,1.27-8.27-1.78-1.99-3-1.82-6.34.16-8.81,2.27.68,4.37.42,6.3-1.1.8-.63,1.72-1.19,2.66-1.56.58-.23,1.33-.04,2.18-.04-.25.71-.39,1.11-.54,1.51.06.03.12.06.19.09.25-.36.5-.72.75-1.07.58.28,1.12.53,1.65.79,0,0-.05-.05-.05-.05Zm-6.8,6.94c-3.61,2.21-4.36,2.36-5.35.93-.21,1.19.42,1.46,1.35,1.32,1.62-.23,3-.92,4-2.26Z"/>
  <path class="cls-3" d="m27.42,35.39c.56.47,1.13.94,1.69,1.41.7.57,1.38,1.16,2.11,1.69.45.32.97.54,1.84,1.02-2.06,1.01-3.8,2.03-5.65,2.73-1.39.53-2.72.17-3.69-1.18-2.7-3.76-5.44-7.48-8.18-11.2-1.08-1.47-2.17-2.94-3.35-4.33-1.25-1.47-1.83-3.14-1.9-5.03-.09-2.49-.14-4.97-.27-7.46-.04-.8.04-1.59.92-1.53.47.03.98.78,1.29,1.31.3.5.41,1.13.53,1.72.17.86.6,1.86.34,2.57-.68,1.81.39,3.2.7,4.77-.12-1.8-.24-3.6-.36-5.4.13,0,.26,0,.4,0,.44.38.88.76,1.32,1.14,0,0-.06-.04-.06-.04.35.58.66,1.18,1.06,1.73.71.98,1.61,1.84,2.17,2.89.93,1.72,1.62,3.56,2.47,5.32.29.6.74,1.13,1.12,1.69,0,0-.04-.05-.04-.05,1.02,1.46,1.95,3,3.08,4.36.65.77,1.63,1.27,2.47,1.88Z"/>
  <path class="cls-2" d="m27.11,57.66c-3.39-.12-6.76-.35-9.79-2.17-.2-.12-.43-.2-.64-.3C7.31,50.85,2.21,43.25.48,33.34c-1.18-6.75-.21-13.3,3.16-19.37.94-1.7,2.05-3.32,3.21-5.2.81.99,1.38,1.7,1.94,2.39C-2.77,28.97,6.21,53.41,27.11,57.66Z"/>
  <path class="cls-1" d="m53.18,29.9c-.16.17-.33.35-.49.52-2.47,3.74-3.89,7.82-3.92,12.32,0,1.33.06,2.57-1.3,3.34-.13.07-.12.4-.17.61,0,0,.05-.04.05-.04-1.5.6-3.01,1.21-4.51,1.8-.82.32-1.27-.02-1.64-.79-1.33-2.77-1.32-5.56.02-8.27.88-1.78,1.99-3.45,3-5.16,0,0-.05.05-.05.05,1.11-1.14,2.27-2.24,3.31-3.44,1.65-1.9,3.67-2.61,6.2-2.15-.17.42-.33.83-.5,1.23Z"/>
  <path class="cls-4" d="m21.91,29.2c-.38-.56-.83-1.08-1.12-1.69-.85-1.76-1.55-3.6-2.47-5.32-.56-1.05-1.46-1.91-2.17-2.89-.4-.54-.71-1.15-1.06-1.73,3.15,2.59,4.51,6.29,6.13,9.83.27.58.46,1.2.69,1.8Z"/>
  <path class="cls-4" d="m27.14,18.6c-1.86-2.38-3.62-4.63-5.37-6.89,2.08,2,4.25,3.93,5.37,6.89Z"/>
  <path class="cls-4" d="m27.42,35.39c-.83-.62-1.82-1.11-2.47-1.88-1.14-1.36-2.07-2.9-3.08-4.36.76.91,1.49,1.84,2.28,2.72,1.07,1.19,2.18,2.35,3.27,3.52Z"/>
  <path class="cls-4" d="m12.91,5.11c2.11,1.4,4.21,2.79,6.32,4.19-.1.14-.19.29-.29.43-2.05-1.49-4.11-2.99-6.16-4.48.04-.05.09-.09.13-.14Z"/>
  <path class="cls-4" d="m15.17,11.33c1.11,1.18,2.22,2.37,3.34,3.55-.11.1-.22.2-.33.3l-3.1-3.76s.09-.09.09-.09Z"/>
  <path class="cls-4" d="m21.43,16.89c.87,1.33,1.75,2.65,2.62,3.98-.1.07-.2.14-.29.2-.88-1.32-1.76-2.64-2.64-3.96.11-.08.21-.15.32-.23Z"/>
  <path class="cls-4" d="m47.29,46.69c.05-.21.04-.54.17-.61,1.36-.77,1.29-2.01,1.3-3.34.03-4.5,1.46-8.58,3.92-12.32-.34.85-.64,1.73-1.04,2.55-1.69,3.46-2.55,7.05-2.47,10.95.05,2.3-.53,4.62-.86,6.93-.06.39-.29.75-.59,1.08.39-2.05.79-4.1,1.18-6.15-.1-.04-.21-.07-.31-.11-.43.34-.87.68-1.3,1.01Z"/>
  <path class="cls-4" d="m30.59,47.9c-.99,1.34-2.38,2.02-4,2.26-.93.13-1.56-.14-1.35-1.32.98,1.43,1.74,1.28,5.35-.93Z"/>
</svg>