<?xml version="1.0" encoding="UTF-8"?><svg id="Layer_1" xmlns="http://www.w3.org/2000/svg" viewBox="0 0 179.85 306.43"><defs><style>.cls-1{fill:#000;}.cls-1,.cls-2{stroke-width:0px;}.cls-3{fill-rule:evenodd;}.cls-3,.cls-4{fill:none;stroke:#000;stroke-miterlimit:10;stroke-width:6px;}.cls-4{stroke-linecap:round;}.cls-2{fill:#fff;}</style></defs><path class="cls-2" d="M65.92,201.37c-2.92,0-5.54-.63-7.8-1.88-8.91-4.95-12.36-19.91-9.47-41.06,3.09-22.57,12.85-49.52,27.49-75.89C101.58,36.74,136.03,3.5,158.08,3.5c2.92,0,5.54.63,7.79,1.88,8.91,4.95,12.36,19.91,9.47,41.06-3.09,22.57-12.85,49.52-27.49,75.89-25.42,45.8-59.88,79.03-81.92,79.03h0Z"/><path class="cls-1" d="M158.08,7c2.35,0,4.35.47,6.1,1.44,7.47,4.15,10.35,18.17,7.7,37.52-3.03,22.15-12.65,48.67-27.09,74.67-27.85,50.16-61.42,77.23-78.87,77.23-2.35,0-4.35-.47-6.1-1.44-7.47-4.15-10.35-18.17-7.7-37.52,3.03-22.15,12.65-48.67,27.09-74.67C107.06,34.07,140.63,7,158.08,7M158.08,0c-22.93,0-58.33,32.82-84.99,80.84-30.69,55.29-38.15,109.78-16.67,121.71,2.83,1.57,6.02,2.32,9.49,2.32,22.93,0,58.33-32.82,84.99-80.84,30.69-55.29,38.15-109.78,16.67-121.71-2.83-1.57-6.02-2.32-9.49-2.32h0Z"/><polyline class="cls-4" points="112 102.43 81.69 158.32 3 303.43"/><path class="cls-3" d="M80.7,158.93l52.8-11h0"/><path class="cls-3" d="M90.77,141.51l54-11.25h0"/></svg>