<?xml version="1.0" encoding="UTF-8"?>
<svg id="Layer_1" data-name="Layer 1" xmlns="http://www.w3.org/2000/svg" viewBox="0 0 208.97 177.65">
  <defs>
    <style>
      .cls-1 {
        fill: #5b2e91;
        stroke-width: 0px;
      }
    </style>
  </defs>
  <path class="cls-1" d="m50.45,51.24c-6.46,6.73-12.08,13.28-12.77,23.15-4.95-2.34-9.67-4.56-14.97-7.07,9-6.36,17.15-13.56,21.68-22.75-2.61-2.2-4.93-3.75-6.74-5.75-8.54-9.5-17.83-18.05-29.07-24.33-1.57-.88-2.67-2.62-4.48-4.47-.75.04-2.38.12-4.01.21C-.28,1.62.11,1.15,8.72,0c.19,1.62.39,3.24.51,4.28,1.89,1.12,3.81,1.68,4.83,2.96,8.22,10.36,18.46,18.28,29.61,25.19,2.18,1.35,3.98,3.29,6.76,5.63,2.9-3.18,6.85-6.9,10.04-11.18,3.21-4.3,5.68-9.16,8.54-13.9,3,4.25,6.01,8.52,9.03,12.81-10.05,4.47-15.6,9.18-20.05,17.17,5.58,4.2,11.68,6.99,18.79,7.68,1.89.18,4.24,1.06,5.42,2.43,24.22,28.19,52.69,51.7,81.85,74.44,5.72,4.46,11.48,8.92,17.55,12.87,13.44,8.73,19.64,22.57,27.36,37.26-14.1-4.66-27.58-7.52-37.73-17.41-24.96-24.31-50.79-47.6-79-68.12-8.66-6.3-17.86-11.84-26.64-17.97-1.8-1.25-3.5-3.4-4.1-5.46-1.95-6.72-5.59-12.19-11.06-17.44Z"/>
</svg>