<?xml version="1.0" encoding="UTF-8"?>
<svg id="Layer_1" data-name="Layer 1" xmlns="http://www.w3.org/2000/svg" viewBox="0 0 153.91 206.81">
  <defs>
    <style>
      .cls-1 {
        fill: #252122;
      }

      .cls-1, .cls-2, .cls-3 {
        stroke-width: 0px;
      }

      .cls-2 {
        fill: #5b2e91;
      }

      .cls-3 {
        fill: #fff;
      }
    </style>
  </defs>
  <path class="cls-2" d="m73.1,72.94c-.17,4.15-.53,8.28-.96,12.4-.13,1.3-.52,2.39-1.4,3.33-4.98,5.37-10.53,10.13-16.27,14.65-1.98,1.56-4.65,1.62-6.9.54-6.36-3.06-12.35-6.77-18.11-10.86-2.27-1.61-2.68-3.67-2.15-6.18.96-4.65,3.88-8.23,6.47-11.98,6.37-9.23,15.12-15.52,25.18-20.16,1.75-.81,3.64-1.23,5.57-1.26,3.63-.04,6.16,1.73,7.25,5.18,1.48,4.67,1.42,9.51,1.32,14.33Z"/>
  <path class="cls-2" d="m102.99,104.33c-2.04.16-3.7-.59-5.25-1.9-4.83-4.06-9.6-8.18-14.04-12.66-1.38-1.4-2.26-2.87-2.45-4.97-.64-7.09-1.39-14.15-.59-21.27.1-.86.22-1.72.38-2.56,1.2-6.41,5.16-8.78,11.48-6.95,4.71,1.36,8.66,4.1,12.7,6.73,8.03,5.22,13.85,12.4,18.71,20.5,1.2,2,1.95,4.13,2.35,6.38.34,1.92-.07,3.61-1.78,4.91-5.88,4.46-12.26,8.09-18.79,11.49-.89.46-1.81.27-2.72.31Z"/>
  <path class="cls-2" d="m58.36,123.06c0-3.03-.06-6.06.02-9.09.07-2.77,1-5.21,3.19-7.04,3.75-3.13,7.69-6.02,11.74-8.75,2.22-1.49,4.46-1.6,6.74-.06,4.26,2.87,8.42,5.88,12.3,9.24,1.72,1.49,2.52,3.55,2.65,5.76.37,6.55.31,13.11.04,19.67-.14,3.45-2.24,5.8-4.83,7.76-3.01,2.27-6.03,4.53-9.11,6.71-3.28,2.32-5.18,2.37-8.48.15-3.64-2.46-7.14-5.1-10.56-7.87-2.46-2-3.69-4.58-3.7-7.74-.01-2.91,0-5.82,0-8.72,0,0,0,0,0,0Z"/>
  <path class="cls-1" d="m90.61,47.24c-9.37-3.82-18.52-3.82-27.85.04-.22-2.43-.45-4.75-.65-7.07-.46-5.43-1.05-10.84-1.31-16.28-.5-10.14,5.63-19.76,15.2-23.78.77-.32,1.31-.05,1.91.21,9.39,4.1,15.37,13.81,14.66,24.1-.52,7.53-1.29,15.03-1.96,22.78Zm-26.99-22.89c-.91.11-1.28.78-1.39,1.62-.09.68.24,1.3.94,1.32.96.02,1.34-.76,1.45-1.58.09-.66-.2-1.18-1.01-1.35Zm27.57,1.56c-.12-.79-.42-1.53-1.42-1.52-.79,0-.98.64-.93,1.3.07.86.48,1.58,1.42,1.6.76.01.92-.65.93-1.37Z"/>
  <path class="cls-2" d="m74.38,168.16c-.13,4.27-.42,7.66-1.32,10.96-2.19,8.05-9.62,10.1-15.85,4.43-3.43-3.12-6.93-6.18-10.33-9.33-4.14-3.84-8.01-7.91-10.82-12.87-3.45-6.09-3.07-8.66,2.15-13.41,3.34-3.03,7.13-5.32,11.58-6.34,2.04-.47,3.85-.14,5.5,1.34,4.92,4.43,9.86,8.84,14.9,13.12,2.35,2,3.34,4.54,3.72,7.41.24,1.83.56,3.68.46,4.68Z"/>
  <path class="cls-2" d="m79.16,168.92c-.09-1.93.12-3.84.41-5.74.41-2.68,1.33-5.07,3.5-6.93,4.97-4.27,9.9-8.6,14.73-13.02,2.03-1.86,4.2-2.19,6.68-1.42,5.7,1.79,10.49,4.91,14,9.83,1.32,1.85,1.55,3.81.7,5.96-1.96,4.92-5.12,9.01-8.71,12.79-4.62,4.85-9.79,9.1-14.74,13.59-2.88,2.61-6.38,3.02-10.09,2.27-2.06-.41-3.13-1.85-3.95-3.58-2.05-4.36-2.41-9.04-2.53-13.75Z"/>
  <path class="cls-2" d="m134.39,120.99c-.36,5.49.19,10.12-1.31,14.56-.49,1.46-.95,2.94-1.56,4.36-1.54,3.58-3.79,5.08-7.72,4.68-8.17-.83-14.86-4.66-20.41-10.62-1.44-1.55-1.78-3.5-1.88-5.49-.19-3.83-.25-7.67-.03-11.51.09-1.63.36-3.2,1.66-4.38,4.46-4.04,9.11-7.8,14.76-10.1,9.41-3.84,14.2,1.04,15.87,9.09.71,3.41.7,6.88.61,9.41Z"/>
  <path class="cls-2" d="m52,122.68c0,1.61,0,3.22,0,4.83.02,3.64-1.39,6.53-4.23,8.85-5.11,4.18-10.67,7.38-17.34,8.17-4.65.55-7.09-.94-8.81-5.27-1.44-3.64-2.33-7.38-2.33-11.35,0-4.76-.58-9.51.04-14.27.32-2.47.88-4.86,2.02-7.08,2.26-4.44,6.12-6.23,10.96-5.07,3.78.91,7.18,2.64,10.31,4.9,2,1.45,3.9,3.05,5.89,4.52,2.48,1.83,3.68,4.23,3.55,7.32-.06,1.48-.01,2.97-.01,4.46-.02,0-.03,0-.05,0Z"/>
  <path class="cls-1" d="m.08,96.39c-.32-4.39.43-8.39,1.08-12.39.94-5.74,2.04-11.47,4.84-16.63,3.9-7.2,9.57-12.84,16.93-16.35,5.48-2.61,11.62-2.68,17.64-2.61,2.67.03,5.29.43,7.82,1.32,2.45.86,2.86,3.19.85,4.88-.61.51-1.32.91-2.01,1.31-3.54,2.06-6.83,4.46-9.74,7.35-1.78,1.77-3.04,3.82-3.87,6.22-2.04,5.85-6.27,9.47-12.08,11.34-3.17,1.02-6.38,1.91-9.52,2.98-4.65,1.59-7.94,4.64-9.6,9.34-.42,1.19-1.06,2.21-2.34,3.22Z"/>
  <path class="cls-1" d="m153.9,96.41c-1.33-.97-1.96-1.99-2.38-3.17-1.68-4.76-5.01-7.85-9.74-9.45-3.03-1.02-6.11-1.93-9.17-2.88-6.33-1.97-10.67-5.95-12.68-12.38-.64-2.04-1.96-3.7-3.47-5.19-3.13-3.11-6.7-5.64-10.53-7.83-1.32-.76-2.72-1.56-2.44-3.53.19-1.29.96-1.9,2.11-2.28,5-1.67,10.1-1.16,15.24-1.05,14.99.31,28.4,15.33,30.8,29.45,1.01,5.96,2.39,11.86,2.25,18.31Z"/>
  <path class="cls-1" d="m121.25,163.59c4.91,5.1,7.76,11.07,9.5,17.6,2.04,7.65,2.43,15.49,2.37,23.37-.01,1.79-1.24,2.14-2.61,2.21-1.56.08-3.08-.33-4.52-.87-10.2-3.76-18.62-10.09-25.91-18.04-.79-.86-.28-1.24.3-1.75,2.82-2.51,5.64-5.01,8.42-7.57,4.75-4.36,9.23-8.96,12.45-14.96Z"/>
  <path class="cls-1" d="m32.62,163.64c5.01,9.18,13.05,15.39,20.54,22.12,1.16,1.05,1.16,1.58.11,2.71-6.72,7.18-14.44,12.92-23.52,16.77-1.77.75-3.61,1.29-5.52,1.52-2.5.3-3.46-.56-3.46-3.01-.02-9.19.55-18.3,3.79-27.03,1.8-4.84,4.27-9.29,8.06-13.08Z"/>
  <path class="cls-3" d="m63.62,24.35c.8.16,1.09.68,1.01,1.35-.11.82-.48,1.61-1.45,1.58-.71-.02-1.03-.63-.94-1.32.11-.83.47-1.51,1.39-1.62Z"/>
  <path class="cls-3" d="m91.19,25.92c0,.71-.17,1.38-.93,1.37-.94-.01-1.35-.73-1.42-1.6-.05-.66.14-1.29.93-1.3,1,0,1.3.73,1.42,1.52Z"/>
</svg>