<?xml version="1.0" encoding="UTF-8"?>
<svg id="Layer_1" data-name="Layer 1" xmlns="http://www.w3.org/2000/svg" viewBox="0 0 89.75 47.83">
  <defs>
    <style>
      .cls-1, .cls-2 {
        stroke-width: 0px;
      }

      .cls-3 {
        fill: none;
        stroke: #838bc5;
        stroke-miterlimit: 10;
        stroke-width: 2px;
      }

      .cls-2 {
        fill: #838bc5;
      }
    </style>
  </defs>
  <path class="cls-2" d="m22.21,46.68L8.66,12.41c-.12-.27-.29-.53-.49-.8-.2-.27-.48-.46-.81-.59l-2.83-1.17v-1.95h14.13v1.95c-1.88.51-3.76,1.02-5.64,1.53,3.74,9.5,7.48,18.99,11.21,28.49,3.86-9.43,7.71-18.86,11.57-28.29l-4.45-1.73v-1.95h11.95v1.95l-2.75,1.25c-.28.12-.55.31-.8.56-.25.25-.43.52-.53.83l-10.91,27.87-3.01,6.32h-3.09Z"/>
  <path class="cls-1" d="m38.49,35.45c.76,0,1.45.15,2.09.45s1.18.7,1.63,1.2.81,1.08,1.07,1.75.38,1.36.38,2.1c0,.77-.13,1.51-.39,2.22s-.63,1.33-1.1,1.88-1.03.98-1.68,1.31-1.36.49-2.13.49-1.45-.16-2.07-.47-1.15-.73-1.6-1.25-.79-1.12-1.03-1.79-.36-1.37-.36-2.09.12-1.44.38-2.13c.25-.7.6-1.31,1.06-1.86s1-.98,1.64-1.31,1.34-.49,2.12-.49Zm-.36.76c-.34,0-.67.07-.99.22s-.6.38-.84.7-.44.74-.59,1.25-.22,1.13-.22,1.87.08,1.48.24,2.18.39,1.31.68,1.83.65.95,1.07,1.26.88.47,1.4.47c.38,0,.72-.07,1.04-.22s.59-.38.83-.7.42-.75.55-1.28.2-1.18.2-1.96-.07-1.5-.22-2.18-.37-1.28-.65-1.79-.64-.92-1.05-1.21-.89-.45-1.42-.45Z"/>
  <path class="cls-1" d="m52.18,35.45v3.66h-.39c-.15-.58-.32-1.06-.5-1.44s-.4-.68-.64-.91-.5-.39-.8-.48-.62-.14-.98-.14c-.27,0-.52.04-.74.12s-.41.19-.57.32-.29.28-.38.45-.13.34-.13.51c0,.22.03.42.09.61s.19.38.39.58.48.41.86.64.87.49,1.49.8c.58.28,1.06.56,1.46.83s.71.55.96.82.42.56.53.85.16.6.16.91c0,.49-.1.94-.31,1.34s-.48.74-.81,1.03-.72.5-1.15.66-.87.23-1.31.23c-.33,0-.68-.03-1.05-.08s-.77-.14-1.2-.27c-.13-.04-.25-.07-.35-.09s-.2-.03-.28-.03c-.17,0-.31.1-.42.3h-.39v-3.83h.39c.11.55.27,1.03.49,1.44s.47.76.77,1.03.62.48.97.62.72.21,1.1.21c.27,0,.51-.04.73-.13s.42-.2.58-.35.29-.31.38-.51.13-.41.13-.63c0-.27-.04-.51-.12-.72s-.22-.42-.43-.63-.5-.42-.87-.64-.84-.48-1.42-.77c-.58-.28-1.04-.54-1.4-.79s-.63-.49-.84-.73-.34-.5-.41-.77-.11-.58-.11-.92c0-.44.08-.85.24-1.22s.38-.71.67-.98.63-.5,1.03-.66.84-.24,1.31-.24c.15,0,.34.02.57.07s.47.1.71.15.46.11.65.15.33.07.4.07c.12,0,.22-.03.29-.08s.15-.18.25-.36h.39Z"/>
  <path class="cls-1" d="m57.7,32.24v3.53h2.51v.82h-2.51v6.96c0,.35.03.64.08.87s.13.41.22.54.21.22.33.28.27.08.43.08c.26,0,.51-.08.75-.24s.43-.4.56-.71h.46c-.14.38-.31.72-.51,1.01s-.42.53-.65.72-.48.34-.75.43-.53.15-.8.15c-.18,0-.36-.03-.54-.08s-.36-.12-.52-.22-.31-.22-.44-.36-.24-.3-.32-.49c-.16-.38-.25-.95-.25-1.72v-7.22h-1.7v-.39c.43-.17.87-.46,1.32-.87s.85-.9,1.2-1.46c.09-.15.19-.36.32-.63s.27-.6.43-1h.36Z"/>
  <path class="cls-1" d="m63.06,39.81c0,.8.11,1.51.32,2.14s.5,1.17.86,1.61.78.78,1.25,1.01.97.35,1.49.35c.7,0,1.31-.19,1.83-.58s.96-1.05,1.31-1.99l.36.23c-.09.52-.25,1.04-.49,1.55s-.55.96-.93,1.36-.82.72-1.32.97-1.05.37-1.65.37c-.64,0-1.24-.13-1.81-.39s-1.06-.63-1.49-1.11-.76-1.06-1.01-1.75-.38-1.45-.38-2.3c0-.93.13-1.76.38-2.48s.6-1.33,1.05-1.83.97-.88,1.58-1.14,1.26-.39,1.95-.39c.59,0,1.14.1,1.65.31s.94.5,1.31.88.65.84.86,1.38.31,1.13.31,1.8h-7.42Zm0-.68h4.97c-.03-.69-.11-1.17-.25-1.45-.2-.44-.49-.78-.87-1.03s-.79-.38-1.21-.38c-.32,0-.63.06-.93.19s-.57.32-.81.56-.44.54-.6.9-.26.75-.3,1.21Z"/>
  <path class="cls-1" d="m75.04,35.45v2.41c.91-1.61,1.83-2.41,2.77-2.41.21,0,.41.04.59.11s.34.17.47.29.24.26.32.42.11.32.11.49c0,.3-.1.56-.3.77s-.45.32-.73.32c-.13,0-.28-.04-.45-.13s-.33-.18-.49-.28-.31-.19-.44-.28-.23-.13-.3-.13c-.1,0-.21.04-.34.13s-.25.21-.39.38-.27.35-.41.57-.28.47-.41.73v5.14c0,.32.02.61.06.87s.12.48.25.66.32.32.57.42.58.15,1,.15v.42h-5.5v-.42c.34,0,.62-.02.84-.07s.39-.14.52-.28.21-.34.26-.6.07-.61.07-1.04v-4.16c0-1.27-.03-2.01-.08-2.23-.1-.46-.36-.69-.79-.69-.24,0-.52.06-.82.18l-.12-.42,3.25-1.31h.49Z"/>
  <path class="cls-1" d="m85.98,44.95c-1.1.86-1.79,1.35-2.07,1.48-.41.2-.86.29-1.35.29-.37,0-.71-.07-1.02-.2s-.58-.32-.81-.56-.4-.53-.53-.87-.19-.72-.19-1.13c0-.3.04-.59.12-.84s.21-.5.37-.73.37-.45.63-.66.55-.42.9-.62c.8-.48,2.12-1.05,3.96-1.71v-.42c0-.54-.04-.99-.13-1.35s-.22-.65-.39-.86-.38-.37-.63-.46-.53-.13-.84-.13c-.25,0-.47.04-.67.11s-.37.17-.51.29-.25.26-.32.42-.11.32-.11.49l.02.68c0,.36-.09.64-.28.83s-.42.29-.72.29-.53-.1-.71-.3-.28-.48-.28-.83c0-.33.09-.65.26-.97s.43-.61.76-.87.74-.46,1.23-.62,1.04-.23,1.67-.23c.83,0,1.53.12,2.11.36s1,.66,1.25,1.25c.14.34.21,1.03.21,2.06v3.64c0,.52,0,.93.02,1.24s.03.53.04.64c.04.23.1.38.19.46s.19.12.31.12c.08,0,.15-.01.22-.04s.15-.07.25-.14.2-.17.33-.29.29-.28.48-.47v.66c-.88,1.17-1.72,1.76-2.51,1.76-.38,0-.68-.13-.91-.4s-.35-.72-.35-1.36Zm0-.76v-4.09c-.59.23-1.08.43-1.46.6s-.65.3-.83.4c-.62.35-1.06.71-1.32,1.08s-.4.78-.4,1.22c0,.28.04.54.13.78s.21.45.36.62.33.31.53.41.41.15.63.15c.59,0,1.38-.39,2.34-1.17Z"/>
  <circle class="cls-3" cx="23.91" cy="23.91" r="22.91"/>
</svg>